<?xml version="1.0" standalone="no"?>
<!DOCTYPE svg PUBLIC "-//W3C//DTD SVG 20010904//EN"
 "http://www.w3.org/TR/2001/REC-SVG-20010904/DTD/svg10.dtd">
<svg version="1.0" xmlns="http://www.w3.org/2000/svg"
 width="1024.000000pt" height="1024.000000pt" viewBox="0 0 1024.000000 1024.000000"
 preserveAspectRatio="xMidYMid meet">

<g transform="translate(0.000000,1024.000000) scale(0.100000,-0.100000)"
fill="#000000" stroke="none">
<path d="M1371 10156 c1 -46 -1 -88 -5 -95 -4 -6 -3 -11 2 -11 16 0 22 28 22
111 0 49 -4 79 -11 79 -6 0 -10 -30 -8 -84z"/>
<path d="M8154 10140 c0 -58 1 -81 3 -52 2 28 2 76 0 105 -2 28 -3 5 -3 -53z"/>
<path d="M5870 10216 c0 -7 72 -47 77 -43 2 3 -12 14 -32 26 -36 21 -45 24
-45 17z"/>
<path d="M5969 10157 c14 -18 51 -42 51 -33 0 3 -15 15 -32 27 -24 17 -29 18
-19 6z"/>
<path d="M6060 10102 c0 -12 19 -26 26 -19 2 2 -2 10 -11 17 -9 8 -15 8 -15 2z"/>
<path d="M6164 10031 c4 -6 16 -16 28 -22 15 -8 18 -8 14 0 -4 6 -16 16 -28
22 -15 8 -18 8 -14 0z"/>
<path d="M8155 9460 c0 -305 1 -430 2 -277 2 152 2 402 0 555 -1 152 -2 27 -2
-278z"/>
<path d="M6247 9979 c7 -7 15 -10 18 -7 3 3 -2 9 -12 12 -14 6 -15 5 -6 -5z"/>
<path d="M6300 9956 c0 -2 8 -10 18 -17 15 -13 16 -12 3 4 -13 16 -21 21 -21
13z"/>
<path d="M6380 9906 c0 -2 7 -9 15 -16 13 -11 14 -10 9 4 -5 14 -24 23 -24 12z"/>
<path d="M6540 9806 c0 -2 8 -10 18 -17 15 -13 16 -12 3 4 -13 16 -21 21 -21
13z"/>
<path d="M6687 9698 c1 -18 0 -54 -3 -80 -5 -38 -10 -48 -24 -48 -16 0 -19
-13 -24 -107 -11 -180 -13 -176 -14 40 0 115 -3 211 -6 215 -4 3 -5 -499 -4
-1116 2 -743 0 -1122 -7 -1122 -5 0 -35 17 -65 38 -30 20 -66 43 -80 50 -14 7
-38 21 -55 32 -16 11 -47 30 -69 42 -21 13 -47 28 -57 34 -11 6 -27 17 -36 25
-10 9 -30 20 -45 27 -16 6 -28 16 -28 22 0 5 -8 10 -18 10 -11 0 -27 9 -37 20
-10 11 -24 20 -32 20 -7 0 -21 9 -30 20 -10 11 -25 20 -34 20 -9 0 -24 9 -34
20 -10 11 -26 20 -36 20 -10 0 -24 8 -31 18 -7 9 -25 23 -40 29 -16 7 -28 17
-28 23 0 5 -9 10 -20 10 -11 0 -28 9 -37 20 -10 11 -25 20 -35 20 -9 0 -23 8
-30 18 -7 10 -25 22 -40 26 -16 3 -28 11 -28 16 0 5 -16 16 -35 24 -19 8 -35
20 -35 25 0 6 -9 11 -20 11 -11 0 -25 9 -32 20 -7 11 -20 20 -29 20 -9 0 -22
7 -29 16 -8 8 -28 21 -47 29 -18 8 -33 19 -33 24 0 6 -8 11 -18 11 -11 0 -27
9 -37 20 -10 11 -24 20 -30 20 -7 0 -24 9 -37 20 -37 28 -133 27 -163 -3 -10
-10 -26 -16 -36 -14 -12 3 -19 0 -19 -9 0 -8 -12 -20 -27 -27 -16 -6 -37 -20
-47 -29 -11 -10 -28 -18 -38 -18 -10 0 -18 -5 -18 -10 0 -6 -12 -16 -27 -23
-15 -6 -36 -20 -45 -29 -10 -10 -27 -18 -38 -18 -11 0 -20 -6 -20 -14 0 -12
-38 -33 -47 -27 -2 0 -12 -8 -23 -19 -11 -11 -26 -20 -33 -20 -7 0 -20 -9 -30
-20 -9 -11 -26 -20 -37 -20 -11 0 -20 -5 -20 -10 0 -6 -12 -16 -27 -23 -16 -6
-37 -20 -47 -29 -11 -10 -28 -18 -38 -18 -10 0 -18 -5 -18 -10 0 -6 -12 -16
-27 -23 -15 -6 -36 -20 -45 -29 -10 -10 -27 -18 -38 -18 -11 0 -20 -5 -20 -10
0 -6 -12 -16 -27 -23 -16 -6 -32 -17 -36 -24 -4 -7 -14 -13 -21 -13 -6 0 -27
-11 -46 -25 -19 -14 -40 -23 -47 -21 -7 3 -13 -1 -13 -8 0 -8 -15 -21 -32 -31
-59 -30 -91 -50 -110 -67 -10 -10 -23 -18 -28 -18 -6 0 -24 -10 -39 -21 -16
-12 -34 -18 -40 -15 -6 4 -11 3 -11 -3 0 -11 -101 -81 -118 -81 -6 0 -12 -4
-14 -9 -3 -9 -50 -39 -98 -63 -14 -7 -33 -21 -42 -30 -10 -10 -24 -18 -32 -18
-8 0 -16 -4 -18 -9 -3 -9 -50 -39 -98 -63 -14 -7 -33 -21 -42 -30 -10 -10 -24
-18 -31 -18 -8 0 -22 -9 -32 -20 -10 -11 -26 -20 -37 -20 -10 0 -18 -5 -18
-10 0 -6 -12 -16 -27 -23 -15 -6 -36 -20 -45 -29 -10 -10 -23 -18 -28 -18 -6
0 -20 -9 -32 -20 -12 -11 -29 -20 -37 -20 -9 0 -22 -9 -29 -20 -7 -11 -19 -20
-27 -20 -7 0 -26 -11 -40 -24 -15 -14 -33 -22 -41 -19 -8 3 -14 -1 -14 -11 0
-9 -12 -19 -26 -22 -15 -4 -35 -15 -45 -25 -11 -11 -25 -19 -32 -19 -7 0 -20
-9 -30 -20 -9 -11 -26 -20 -37 -20 -11 0 -20 -7 -20 -15 0 -8 -12 -18 -27 -21
-16 -4 -39 -18 -52 -31 -14 -13 -30 -22 -38 -19 -7 3 -13 -1 -13 -9 0 -8 -12
-18 -27 -21 -16 -4 -34 -16 -41 -26 -7 -10 -19 -18 -27 -18 -7 0 -27 -12 -44
-27 l-31 -27 0 -146 0 -145 35 -28 35 -28 45 32 45 32 0 123 0 123 29 20 c16
12 32 21 35 21 3 0 53 30 110 68 132 85 220 141 267 169 20 12 97 61 170 108
74 48 170 111 214 140 80 52 180 114 348 216 49 30 101 62 115 71 15 10 43 27
62 38 38 22 43 25 142 88 37 23 70 42 73 42 4 0 21 11 39 25 18 14 36 25 39
25 6 0 201 120 332 205 28 17 118 74 200 124 262 162 290 180 306 195 20 20
65 21 73 1 3 -8 14 -15 24 -15 10 0 27 -9 37 -20 10 -11 22 -20 27 -20 5 0 24
-11 41 -24 44 -33 226 -146 236 -146 4 0 16 -9 26 -20 10 -11 23 -20 30 -20 7
0 22 -9 35 -20 13 -11 29 -20 37 -20 7 0 16 -7 19 -15 3 -8 16 -17 27 -21 12
-3 30 -13 40 -22 18 -16 39 -29 95 -58 19 -9 36 -23 39 -31 3 -7 12 -13 19
-13 8 0 45 -20 83 -45 38 -25 73 -45 79 -45 5 0 12 -7 16 -15 3 -8 11 -15 19
-15 7 0 22 -8 33 -18 10 -9 30 -23 44 -30 14 -7 37 -20 52 -30 207 -130 280
-176 376 -233 61 -38 138 -86 170 -107 31 -21 84 -54 117 -72 33 -19 110 -65
170 -104 61 -38 124 -76 140 -85 17 -9 64 -38 105 -64 78 -50 437 -269 480
-294 14 -8 63 -38 109 -66 138 -86 122 81 121 -1303 l0 -1199 -27 -23 c-15
-12 -34 -20 -43 -17 -9 3 -24 -3 -33 -13 -15 -16 -15 -19 2 -29 15 -9 32 -4
97 33 43 25 84 50 89 56 7 8 6 9 -4 3 -9 -5 -12 -4 -7 3 4 7 13 12 20 12 8 0
26 16 40 35 l27 34 6 1128 c3 621 3 1154 -1 1186 -4 32 -14 63 -22 70 -9 7
-24 19 -34 29 -10 9 -27 19 -38 22 -11 4 -23 13 -26 21 -3 8 -14 15 -26 15
-11 0 -25 9 -32 20 -7 11 -21 20 -30 20 -10 0 -27 9 -38 20 -11 11 -26 20 -33
20 -8 0 -22 9 -32 20 -10 11 -24 20 -32 20 -7 0 -21 9 -30 20 -10 11 -25 20
-34 20 -9 0 -24 9 -34 20 -10 11 -24 20 -32 20 -7 0 -21 9 -30 20 -10 11 -25
20 -34 20 -9 0 -24 9 -34 20 -10 11 -23 20 -30 20 -7 0 -20 9 -30 20 -10 11
-26 20 -36 20 -11 0 -24 9 -31 20 -7 11 -21 20 -31 20 -9 0 -25 9 -34 20 -10
11 -25 20 -35 20 -9 0 -22 9 -28 20 -6 11 -19 20 -30 20 -11 0 -27 8 -37 18
-10 10 -29 24 -43 30 -38 19 -68 37 -87 53 -22 17 -55 37 -105 61 -21 10 -38
23 -38 28 0 6 -7 10 -15 10 -8 0 -24 9 -35 20 -11 11 -26 20 -34 20 -7 0 -19
7 -26 16 -8 8 -27 22 -44 30 -45 21 -73 39 -94 57 -10 10 -24 17 -30 17 -6 0
-17 6 -24 13 -7 6 -23 19 -36 27 l-23 15 1 860 c0 864 -8 1455 -20 1455 -3 0
-5 -15 -3 -32z m0 -245 c-3 -10 -5 -2 -5 17 0 19 2 27 5 18 2 -10 2 -26 0 -35z
m0 -205 c-2 -13 -4 -5 -4 17 -1 22 1 32 4 23 2 -10 2 -28 0 -40z m-47 -37 c0
-6 -4 -13 -10 -16 -5 -3 -10 1 -10 9 0 9 5 16 10 16 6 0 10 -4 10 -9z m-13
-103 c-2 -13 -4 -5 -4 17 -1 22 1 32 4 23 2 -10 2 -28 0 -40z m60 20 c-3 -7
-5 -2 -5 12 0 14 2 19 5 13 2 -7 2 -19 0 -25z m0 -385 c-2 -21 -4 -6 -4 32 0
39 2 55 4 38 2 -18 2 -50 0 -70z m-50 -395 c-1 -40 -3 -8 -3 72 0 80 2 112 3
73 2 -40 2 -106 0 -145z m53 -915 c0 -7 -39 17 -46 28 -3 6 5 3 20 -6 14 -10
26 -19 26 -22z"/>
<path d="M6636 9670 c3 -64 7 -75 13 -35 7 41 4 65 -8 65 -3 0 -5 -13 -5 -30z"/>
<path d="M755 9660 c-3 -5 -1 -10 4 -10 6 0 11 5 11 10 0 6 -2 10 -4 10 -3 0
-8 -4 -11 -10z"/>
<path d="M695 9620 c-3 -6 1 -7 9 -4 18 7 21 14 7 14 -6 0 -13 -4 -16 -10z"/>
<path d="M624 9574 c-18 -14 -18 -15 4 -4 12 6 22 13 22 15 0 8 -5 6 -26 -11z"/>
<path d="M560 9540 c-8 -5 -12 -11 -9 -14 3 -3 14 1 25 9 21 16 8 20 -16 5z"/>
<path d="M500 9499 c0 -5 5 -7 10 -4 6 3 10 8 10 11 0 2 -4 4 -10 4 -5 0 -10
-5 -10 -11z"/>
<path d="M435 9460 c-3 -6 1 -7 9 -4 18 7 21 14 7 14 -6 0 -13 -4 -16 -10z"/>
<path d="M374 9425 c-10 -8 -14 -14 -9 -15 15 0 40 18 34 24 -3 3 -14 -1 -25
-9z"/>
<path d="M305 9380 c-3 -5 -2 -10 4 -10 5 0 13 5 16 10 3 6 2 10 -4 10 -5 0
-13 -4 -16 -10z"/>
<path d="M234 9335 c-10 -8 -14 -15 -8 -15 6 0 17 7 24 15 16 19 9 19 -16 0z"/>
<path d="M1384 9180 c0 -91 2 -128 3 -82 2 45 2 119 0 165 -1 45 -3 8 -3 -83z"/>
<path d="M169 9293 c-13 -15 -12 -15 9 -4 23 12 28 21 13 21 -5 0 -15 -7 -22
-17z"/>
<path d="M115 9260 c-3 -6 1 -7 9 -4 18 7 21 14 7 14 -6 0 -13 -4 -16 -10z"/>
<path d="M60 9230 c-8 -5 -10 -10 -5 -10 6 0 17 5 25 10 8 5 11 10 5 10 -5 0
-17 -5 -25 -10z"/>
<path d="M0 9189 c0 -5 5 -7 10 -4 5 3 10 8 10 11 0 2 -4 4 -10 4 -5 0 -10 -5
-10 -11z"/>
<path d="M10206 9185 c-11 -8 -15 -15 -10 -15 6 0 19 7 30 15 10 8 15 14 9 14
-5 0 -19 -6 -29 -14z"/>
<path d="M10144 9144 c-18 -14 -18 -15 4 -4 12 6 22 13 22 15 0 8 -5 6 -26
-11z"/>
<path d="M10074 9104 c-18 -14 -18 -15 4 -4 12 6 22 13 22 15 0 8 -5 6 -26
-11z"/>
<path d="M110 9060 c8 -5 20 -10 25 -10 6 0 3 5 -5 10 -8 5 -19 10 -25 10 -5
0 -3 -5 5 -10z"/>
<path d="M1510 9060 c-9 -6 -10 -10 -3 -10 6 0 15 5 18 10 8 12 4 12 -15 0z"/>
<path d="M9995 9060 c-3 -5 -2 -10 4 -10 5 0 13 5 16 10 3 6 2 10 -4 10 -5 0
-13 -4 -16 -10z"/>
<path d="M170 9025 c0 -2 10 -10 23 -16 20 -11 21 -11 8 4 -13 16 -31 23 -31
12z"/>
<path d="M1440 9020 c-9 -6 -10 -10 -3 -10 6 0 15 5 18 10 8 12 4 12 -15 0z"/>
<path d="M9920 9009 c-22 -18 -22 -19 -3 -10 12 6 25 16 28 21 9 15 3 12 -25
-11z"/>
<path d="M240 8986 c0 -2 7 -7 16 -10 8 -3 12 -2 9 4 -6 10 -25 14 -25 6z"/>
<path d="M1376 8982 c-2 -4 -1 -23 3 -42 l8 -35 4 43 c4 38 -2 54 -15 34z"/>
<path d="M3295 8485 c0 -278 3 -505 8 -505 4 0 7 227 7 505 0 278 -3 505 -7
505 -5 0 -8 -227 -8 -505z"/>
<path d="M9854 8974 c-18 -14 -18 -15 4 -4 12 6 22 13 22 15 0 8 -5 6 -26 -11z"/>
<path d="M1329 8943 c-13 -16 -12 -17 4 -4 9 7 17 15 17 17 0 8 -8 3 -21 -13z"/>
<path d="M3224 8945 c-10 -8 -14 -15 -8 -15 6 0 17 7 24 15 16 19 9 19 -16 0z"/>
<path d="M300 8946 c0 -2 7 -6 15 -10 8 -3 15 -1 15 4 0 6 -7 10 -15 10 -8 0
-15 -2 -15 -4z"/>
<path d="M9789 8933 c-13 -15 -12 -15 9 -4 23 12 28 21 13 21 -5 0 -15 -7 -22
-17z"/>
<path d="M1264 8904 c-18 -14 -18 -15 4 -4 12 6 22 13 22 15 0 8 -5 6 -26 -11z"/>
<path d="M3156 8905 c-11 -8 -18 -17 -15 -19 2 -3 15 4 29 14 14 11 21 20 15
19 -5 0 -19 -6 -29 -14z"/>
<path d="M9739 8903 c-13 -16 -12 -17 4 -4 9 7 17 15 17 17 0 8 -8 3 -21 -13z"/>
<path d="M375 8900 c3 -5 11 -10 16 -10 6 0 7 5 4 10 -3 6 -11 10 -16 10 -6 0
-7 -4 -4 -10z"/>
<path d="M1384 8805 c0 -49 1 -71 3 -48 2 23 2 64 0 90 -2 26 -3 8 -3 -42z"/>
<path d="M9688 8874 c-38 -20 -36 -28 2 -9 17 9 30 18 30 20 0 7 -1 6 -32 -11z"/>
<path d="M1194 8865 c-10 -8 -14 -15 -8 -15 6 0 17 7 24 15 16 19 9 19 -16 0z"/>
<path d="M3096 8865 c-11 -8 -18 -17 -15 -19 2 -3 15 4 29 14 14 11 21 20 15
19 -5 0 -19 -6 -29 -14z"/>
<path d="M445 8860 c3 -5 11 -10 16 -10 6 0 7 5 4 10 -3 6 -11 10 -16 10 -6 0
-7 -4 -4 -10z"/>
<path d="M8153 8825 c0 -22 2 -30 4 -17 2 12 2 30 0 40 -3 9 -5 -1 -4 -23z"/>
<path d="M9618 8834 c-38 -20 -36 -28 2 -9 17 9 30 18 30 20 0 7 -1 6 -32 -11z"/>
<path d="M3034 8825 c-10 -8 -14 -15 -8 -15 5 0 19 7 30 15 10 8 14 15 8 15
-5 0 -19 -7 -30 -15z"/>
<path d="M515 8820 c3 -5 11 -10 16 -10 6 0 7 5 4 10 -3 6 -11 10 -16 10 -6 0
-7 -4 -4 -10z"/>
<path d="M1125 8820 c-3 -6 1 -7 9 -4 18 7 21 14 7 14 -6 0 -13 -4 -16 -10z"/>
<path d="M9545 8789 c-16 -10 -25 -19 -19 -19 7 0 22 9 35 20 30 24 23 24 -16
-1z"/>
<path d="M2974 8785 c-10 -8 -14 -15 -8 -15 6 0 17 7 24 15 16 19 9 19 -16 0z"/>
<path d="M570 8786 c0 -2 7 -7 16 -10 8 -3 12 -2 9 4 -6 10 -25 14 -25 6z"/>
<path d="M1060 8780 c-9 -6 -10 -10 -3 -10 6 0 15 5 18 10 8 12 4 12 -15 0z"/>
<path d="M7313 8519 c1 -264 1 -271 21 -279 12 -4 30 -17 40 -29 11 -11 23
-21 29 -21 19 0 146 -85 147 -99 0 -9 8 -11 27 -6 33 8 29 4 36 36 8 30 -12
51 -88 94 -27 15 -65 39 -82 52 -31 23 -33 27 -33 89 l0 66 29 -19 c132 -83
153 -91 159 -60 8 40 -8 68 -51 88 -38 18 -93 52 -124 79 -16 13 -18 120 -2
120 6 0 47 -25 91 -55 44 -30 84 -55 89 -55 12 0 11 67 -1 91 -6 10 -19 19
-29 19 -9 0 -28 11 -41 25 -13 14 -29 25 -35 25 -7 0 -20 9 -30 20 -10 11 -21
17 -26 14 -5 -2 -17 4 -29 16 -11 11 -24 20 -28 20 -5 0 -17 9 -27 20 -41 45
-43 34 -42 -251z"/>
<path d="M2886 8729 c-26 -17 -46 -32 -43 -35 5 -5 97 54 97 62 0 6 -2 5 -54
-27z"/>
<path d="M9433 8724 c-34 -19 -66 -40 -70 -47 -4 -7 6 -3 22 7 17 11 49 31 73
44 23 13 42 26 42 28 0 6 -2 6 -67 -32z"/>
<path d="M645 8740 c3 -5 11 -10 16 -10 6 0 7 5 4 10 -3 6 -11 10 -16 10 -6 0
-7 -4 -4 -10z"/>
<path d="M995 8740 c-3 -5 -2 -10 4 -10 5 0 13 5 16 10 3 6 2 10 -4 10 -5 0
-13 -4 -16 -10z"/>
<path d="M717 8699 c7 -7 15 -10 18 -7 3 3 -2 9 -12 12 -14 6 -15 5 -6 -5z"/>
<path d="M920 8689 c-22 -18 -22 -19 -3 -10 12 6 25 16 28 21 9 15 3 12 -25
-11z"/>
<path d="M1384 8615 c0 -55 1 -76 3 -47 2 29 2 74 0 100 -2 26 -3 2 -3 -53z"/>
<path d="M3110 8680 c-28 -21 -27 -3 -29 -322 -1 -214 2 -201 -60 -247 -21
-15 -23 -23 -17 -55 l7 -37 30 18 c42 25 73 62 87 103 13 41 27 560 15 560 -4
0 -19 -9 -33 -20z"/>
<path d="M2799 8669 c-23 -19 -23 -20 -2 -10 12 6 25 16 28 21 10 16 -1 12
-26 -11z"/>
<path d="M787 8659 c7 -7 15 -10 18 -7 3 3 -2 9 -12 12 -14 6 -15 5 -6 -5z"/>
<path d="M9315 8650 c-16 -11 -25 -20 -19 -20 11 0 64 39 54 40 -3 0 -18 -9
-35 -20z"/>
<path d="M8151 8634 c0 -11 3 -14 6 -6 3 7 2 16 -1 19 -3 4 -6 -2 -5 -13z"/>
<path d="M809 8623 c-13 -16 -12 -17 4 -4 16 13 21 21 13 21 -2 0 -10 -8 -17
-17z"/>
<path d="M2726 8625 c-11 -8 -15 -15 -10 -15 6 0 19 7 30 15 10 8 15 14 9 14
-5 0 -19 -6 -29 -14z"/>
<path d="M746 8585 c-11 -8 -15 -15 -9 -15 6 0 16 7 23 15 16 19 11 19 -14 0z"/>
<path d="M2670 8590 c-8 -5 -12 -11 -9 -14 3 -3 14 1 25 9 21 16 8 20 -16 5z"/>
<path d="M3007 8583 c-4 -3 -7 -21 -7 -38 0 -17 -3 -35 -7 -39 -5 -4 -9 -42
-10 -84 0 -43 -3 -114 -5 -160 -3 -71 -1 -82 14 -82 48 0 48 0 48 211 0 159
-3 199 -13 199 -8 0 -17 -3 -20 -7z"/>
<path d="M2609 8550 c-13 -10 -19 -19 -13 -20 6 0 19 9 29 20 23 26 14 26 -16
0z"/>
<path d="M7698 8433 c0 -70 0 -135 0 -143 1 -8 2 -68 2 -134 0 -117 13 -174
31 -145 7 11 12 9 24 -8 33 -47 44 -30 47 72 l3 95 37 -30 c30 -25 42 -46 67
-124 41 -127 58 -166 72 -166 7 0 22 -9 34 -20 12 -11 29 -18 37 -15 17 7 18
3 -48 193 l-32 93 34 14 c38 16 51 57 40 126 -9 57 -67 159 -91 159 -8 0 -77
51 -87 64 -3 5 -16 10 -27 11 -12 1 -27 8 -34 17 -6 8 -33 27 -59 42 l-48 27
-2 -128z m162 -55 c56 -37 96 -111 85 -155 -9 -37 -29 -38 -90 -3 l-55 31 0
80 c0 43 2 79 5 79 3 0 28 -15 55 -32z"/>
<path d="M670 8540 c-8 -5 -10 -10 -5 -10 6 0 17 5 25 10 8 5 11 10 5 10 -5 0
-17 -5 -25 -10z"/>
<path d="M985 8540 c3 -5 11 -10 16 -10 6 0 7 5 4 10 -3 6 -11 10 -16 10 -6 0
-7 -4 -4 -10z"/>
<path d="M2550 8510 c-14 -11 -20 -20 -15 -19 13 0 50 28 44 33 -2 3 -15 -4
-29 -14z"/>
<path d="M2845 8516 c-20 -15 -22 -18 -24 -61 -1 -28 -21 -35 -21 -7 0 29 -9
32 -44 16 -28 -14 -33 -24 -49 -87 -18 -76 -21 -109 -11 -120 13 -12 44 14 62
51 21 46 62 58 62 18 0 -19 -12 -32 -59 -60 -32 -20 -63 -36 -69 -36 -16 0
-32 -34 -32 -65 0 -25 1 -25 29 -11 15 8 49 31 74 50 35 27 47 31 51 20 8 -22
-1 -36 -47 -71 -34 -26 -43 -29 -50 -17 -5 8 -13 12 -18 9 -5 -4 -7 -10 -4
-15 3 -5 1 -11 -4 -14 -14 -9 -14 -243 0 -251 23 -15 36 15 40 95 1 25 3 34 6
20 13 -87 14 -91 31 -88 25 4 31 24 31 116 1 47 5 82 11 82 6 0 10 -38 10 -95
0 -73 3 -95 13 -95 30 0 47 36 47 96 0 96 11 164 26 164 17 0 18 -44 3 -88 -6
-17 -9 -39 -7 -49 2 -13 9 -8 26 20 28 49 46 166 33 215 -1 1 -19 -7 -42 -18
-23 -12 -43 -19 -46 -17 -8 9 24 51 62 80 23 19 35 36 35 53 l0 25 -29 -20
c-63 -45 -82 -15 -26 39 24 23 35 43 35 62 0 33 -14 36 -38 8 -17 -21 -17 -20
-22 16 -6 43 -17 50 -45 30z m-105 -463 c0 -30 -3 -43 -9 -35 -4 8 -7 23 -6
35 1 12 3 28 4 35 0 6 3 12 6 12 3 0 5 -21 5 -47z"/>
<path d="M614 8505 c-10 -8 -14 -15 -8 -15 6 0 17 7 24 15 16 19 9 19 -16 0z"/>
<path d="M1050 8506 c0 -2 7 -7 16 -10 8 -3 12 -2 9 4 -6 10 -25 14 -25 6z"/>
<path d="M2484 8465 c-10 -8 -14 -15 -8 -15 6 0 17 7 24 15 16 19 9 19 -16 0z"/>
<path d="M539 8453 c-13 -17 -13 -17 6 -3 11 8 22 16 24 17 2 2 0 3 -6 3 -6 0
-17 -8 -24 -17z"/>
<path d="M1110 8466 c0 -2 9 -6 20 -9 11 -3 18 -1 14 4 -5 9 -34 13 -34 5z"/>
<path d="M2423 8428 c-13 -6 -23 -15 -23 -20 0 -10 36 7 45 22 7 12 7 12 -22
-2z"/>
<path d="M480 8420 c-9 -6 -10 -10 -3 -10 6 0 15 5 18 10 8 12 4 12 -15 0z"/>
<path d="M1180 8425 c0 -2 10 -10 23 -16 20 -11 21 -11 8 4 -13 16 -31 23 -31
12z"/>
<path d="M2337 8373 c-20 -14 -35 -28 -33 -30 4 -4 86 46 86 53 0 9 -17 1 -53
-23z"/>
<path d="M415 8380 c-3 -5 -2 -10 4 -10 5 0 13 5 16 10 3 6 2 10 -4 10 -5 0
-13 -4 -16 -10z"/>
<path d="M354 8345 c-10 -8 -14 -15 -8 -15 6 0 17 7 24 15 16 19 9 19 -16 0z"/>
<path d="M1327 8339 c7 -7 15 -10 18 -7 3 3 -2 9 -12 12 -14 6 -15 5 -6 -5z"/>
<path d="M2254 8315 c-10 -8 -14 -15 -8 -15 6 0 17 7 24 15 16 19 9 19 -16 0z"/>
<path d="M290 8305 c-11 -13 -10 -14 4 -9 9 3 16 10 16 15 0 13 -6 11 -20 -6z"/>
<path d="M1375 8310 c3 -5 8 -10 11 -10 2 0 4 5 4 10 0 6 -5 10 -11 10 -5 0
-7 -4 -4 -10z"/>
<path d="M1407 8289 c7 -7 15 -10 18 -7 3 3 -2 9 -12 12 -14 6 -15 5 -6 -5z"/>
<path d="M8146 8263 c-2 -21 -3 -117 -1 -213 1 -96 3 -201 4 -232 1 -56 2 -59
40 -84 57 -37 65 -27 58 72 -7 92 -1 100 42 61 15 -13 52 -32 83 -42 l57 -19
26 24 c69 64 48 207 -43 302 -19 20 -38 35 -42 33 -4 -3 -15 4 -25 15 -10 11
-23 20 -30 20 -7 0 -20 9 -30 20 -10 11 -23 20 -29 20 -6 0 -29 14 -50 30 -22
17 -43 30 -47 30 -4 0 -10 -17 -13 -37z m168 -153 c49 -33 76 -81 76 -133 0
-56 -20 -64 -85 -32 l-55 26 0 53 c0 30 -3 68 -6 85 -8 41 12 41 70 1z"/>
<path d="M2190 8275 c-7 -8 -8 -15 -2 -15 5 0 15 7 22 15 7 8 8 15 2 15 -5 0
-15 -7 -22 -15z"/>
<path d="M2475 8225 c-86 -53 -90 -54 -93 -33 -2 13 -7 27 -12 31 -12 13 -75
-51 -75 -78 -1 -13 3 -21 7 -19 4 3 8 2 8 -3 -1 -8 -82 -63 -95 -63 -3 0 -27
-16 -51 -36 -43 -36 -44 -38 -44 -96 l0 -59 31 22 c17 12 35 34 41 50 7 21 43
50 141 113 73 47 137 90 144 95 17 15 23 14 23 -4 0 -13 6 -12 39 4 29 15 40
28 45 51 6 33 -1 80 -13 80 -3 0 -46 -25 -96 -55z"/>
<path d="M225 8260 c-3 -5 -1 -10 4 -10 6 0 11 5 11 10 0 6 -2 10 -4 10 -3 0
-8 -4 -11 -10z"/>
<path d="M1475 8250 c3 -5 11 -10 16 -10 6 0 7 5 4 10 -3 6 -11 10 -16 10 -6
0 -7 -4 -4 -10z"/>
<path d="M164 8225 c-10 -8 -14 -15 -8 -15 6 0 17 7 24 15 16 19 9 19 -16 0z"/>
<path d="M2093 8208 c-48 -33 -58 -48 -15 -23 42 25 66 44 61 49 -2 2 -23 -9
-46 -26z"/>
<path d="M1545 8210 c3 -5 11 -10 16 -10 6 0 7 5 4 10 -3 6 -11 10 -16 10 -6
0 -7 -4 -4 -10z"/>
<path d="M99 8183 c-13 -15 -12 -15 9 -4 23 12 28 21 13 21 -5 0 -15 -7 -22
-17z"/>
<path d="M34 8146 c-10 -8 -16 -17 -13 -20 3 -3 14 3 24 14 21 23 17 26 -11 6z"/>
<path d="M1989 8140 l-24 -20 28 11 c15 7 27 16 27 21 0 12 -5 10 -31 -12z"/>
<path d="M2510 8109 c-19 -17 -89 -66 -155 -110 -227 -150 -225 -148 -225
-192 l0 -38 68 47 c37 26 74 54 83 61 15 13 17 10 21 -22 2 -20 4 -68 4 -108
-1 -68 -2 -72 -25 -75 -34 -5 -45 12 -42 67 5 110 -58 59 -82 -66 -8 -45 -27
-108 -41 -139 -28 -60 -27 -97 2 -92 15 3 57 72 76 124 3 11 13 30 21 44 14
24 15 24 15 3 0 -37 35 -48 84 -27 22 10 50 25 61 35 11 9 31 19 45 23 14 3
47 26 73 50 27 25 53 46 58 48 11 4 32 88 25 96 -3 3 -22 -8 -41 -24 -138
-111 -155 -117 -155 -55 0 37 3 41 59 75 73 45 83 57 79 95 l-3 30 -60 -40
c-71 -46 -85 -48 -85 -11 0 23 9 33 53 60 66 40 101 76 121 124 25 60 19 63
-34 17z"/>
<path d="M1934 8105 c-10 -8 -14 -15 -8 -15 6 0 17 7 24 15 16 19 9 19 -16 0z"/>
<path d="M1847 8049 c-26 -18 -46 -34 -43 -36 5 -5 96 55 96 62 0 8 -2 6 -53
-26z"/>
<path d="M5128 8040 c-3 -16 -1 -30 3 -30 4 0 9 14 11 30 3 17 1 30 -3 30 -4
0 -9 -13 -11 -30z"/>
<path d="M1377 8043 c-4 -3 -7 -11 -7 -17 0 -6 5 -5 12 2 6 6 9 14 7 17 -3 3
-9 2 -12 -2z"/>
<path d="M8576 8003 c-3 -3 -6 -36 -6 -73 0 -55 4 -70 20 -85 12 -10 19 -24
17 -29 -9 -25 13 -49 88 -99 l80 -52 3 -92 c1 -51 -1 -93 -6 -93 -15 0 -50 82
-56 130 -2 24 -9 46 -15 48 -5 2 -8 9 -5 17 6 15 -31 39 -46 30 -6 -3 -10 -21
-10 -40 0 -37 -56 -117 -77 -110 -28 10 -2 -67 32 -95 15 -13 21 -10 51 23
l34 37 29 -59 c35 -68 77 -121 97 -121 8 0 17 -7 20 -15 4 -8 12 -15 19 -15 8
0 27 -12 44 -26 17 -14 37 -24 45 -21 8 3 26 -7 41 -23 28 -30 81 -54 89 -42
2 4 7 24 11 45 5 26 4 37 -5 37 -6 0 -23 9 -37 20 -14 11 -33 20 -42 21 -9 0
-43 19 -76 42 -56 40 -60 45 -63 86 l-3 43 27 -21 c15 -11 35 -21 44 -21 10 0
23 -7 30 -15 17 -21 64 -20 56 1 -3 9 -6 23 -6 33 0 9 -13 25 -30 34 -16 10
-30 15 -30 12 0 -4 -12 2 -27 13 -16 10 -35 21 -43 24 -16 6 -28 78 -14 78 4
0 26 -11 48 -24 23 -13 51 -27 64 -30 19 -6 22 -4 22 18 0 13 -3 31 -6 40 -7
19 -34 22 -34 4 0 -7 -6 -2 -13 11 -6 13 -38 38 -69 55 -115 62 -208 117 -213
127 -4 5 -3 18 0 29 6 19 10 18 73 -16 102 -55 205 -116 225 -133 22 -19 47
-75 47 -106 0 -27 24 -49 44 -42 18 7 30 101 18 142 -5 17 -17 35 -28 40 -10
6 -40 25 -66 43 -27 18 -48 30 -48 26 0 -18 -42 33 -62 75 -25 52 -34 61 -65
61 -18 0 -23 -6 -23 -25 0 -29 -16 -26 -67 13 -18 13 -33 21 -33 18 0 -4 -15
4 -32 17 -45 33 -54 37 -62 30z"/>
<path d="M1755 7990 c-3 -5 -2 -10 4 -10 5 0 13 5 16 10 3 6 2 10 -4 10 -5 0
-13 -4 -16 -10z"/>
<path d="M5121 7957 c-1 -29 -5 -46 -11 -42 -5 3 -10 2 -10 -3 0 -5 -31 -29
-70 -52 -66 -40 -97 -65 -47 -39 20 11 150 90 153 93 1 0 -2 21 -6 46 l-7 45
-2 -48z"/>
<path d="M1710 7960 c-14 -11 -20 -20 -15 -19 13 0 50 28 44 33 -2 3 -15 -4
-29 -14z"/>
<path d="M3220 7935 c-7 -8 -8 -15 -2 -15 5 0 15 7 22 15 7 8 8 15 2 15 -5 0
-15 -7 -22 -15z"/>
<path d="M1644 7915 c-10 -8 -14 -15 -8 -15 6 0 17 7 24 15 16 19 9 19 -16 0z"/>
<path d="M3170 7900 c-8 -5 -12 -11 -9 -14 3 -3 14 1 25 9 21 16 8 20 -16 5z"/>
<path d="M1561 7864 c-19 -13 -28 -24 -20 -24 8 1 28 12 44 25 38 32 21 31
-24 -1z"/>
<path d="M1866 7875 c-14 -11 -19 -29 -21 -80 -1 -57 -5 -70 -28 -93 l-27 -27
0 48 c0 50 -5 55 -34 34 -13 -10 -24 -44 -37 -118 -10 -57 -22 -119 -25 -136
-4 -21 -3 -33 4 -33 12 0 82 100 82 117 0 11 42 53 53 53 4 0 7 -26 7 -57 l0
-58 -63 -39 c-34 -22 -72 -50 -83 -64 l-22 -24 3 118 c2 72 10 139 19 169 22
70 21 77 -11 73 -26 -3 -29 -9 -53 -98 -14 -52 -34 -115 -44 -140 -23 -57 -32
-144 -14 -138 7 3 16 18 20 36 18 70 24 32 20 -139 -2 -98 -1 -179 3 -179 20
0 60 45 61 69 0 14 1 71 2 126 2 61 6 95 11 86 7 -11 17 -8 54 13 25 15 51 33
57 41 7 8 19 15 26 15 11 0 14 -23 14 -110 0 -64 4 -110 10 -110 5 0 21 12 35
27 23 26 25 34 25 134 l0 107 35 26 c19 15 39 25 44 22 12 -8 47 34 54 64 12
49 -5 52 -68 10 -32 -21 -61 -37 -64 -35 -4 2 -5 24 -3 50 4 41 8 49 41 70 49
30 74 70 66 102 l-6 24 -49 -35 -50 -36 0 65 c0 69 -8 77 -44 50z"/>
<path d="M3097 7853 c-20 -14 -35 -28 -33 -31 3 -2 19 7 38 20 18 12 35 24 37
25 2 2 2 5 0 8 -3 2 -22 -7 -42 -22z"/>
<path d="M7240 7876 c0 -2 7 -7 16 -10 8 -3 12 -2 9 4 -6 10 -25 14 -25 6z"/>
<path d="M7283 7852 c4 -5 35 -27 70 -47 56 -33 158 -94 246 -148 19 -11 32
-16 28 -10 -4 5 -50 36 -104 68 -54 32 -105 63 -113 70 -28 22 -133 78 -127
67z"/>
<path d="M20 7831 c0 -5 7 -11 15 -15 8 -3 15 -1 15 3 0 5 -7 11 -15 15 -8 3
-15 1 -15 -3z"/>
<path d="M1460 7800 c-25 -16 -41 -30 -37 -30 10 0 97 50 97 56 0 10 -18 2
-60 -26z"/>
<path d="M3000 7788 c-19 -12 -44 -27 -54 -33 -11 -5 -22 -17 -24 -25 -3 -9 9
-4 29 13 19 15 44 32 56 37 11 5 24 14 28 19 9 15 5 14 -35 -11z"/>
<path d="M4919 7789 l-24 -20 28 17 c15 9 27 18 27 20 0 8 -8 4 -31 -17z"/>
<path d="M95 7780 c3 -5 11 -10 16 -10 6 0 7 5 4 10 -3 6 -11 10 -16 10 -6 0
-7 -4 -4 -10z"/>
<path d="M1332 7718 c-34 -22 -61 -42 -59 -45 5 -4 137 76 137 83 0 9 -19 0
-78 -38z"/>
<path d="M165 7740 c3 -5 11 -10 16 -10 6 0 7 5 4 10 -3 6 -11 10 -16 10 -6 0
-7 -4 -4 -10z"/>
<path d="M4824 7734 c-18 -14 -18 -15 4 -4 12 6 22 13 22 15 0 8 -5 6 -26 -11z"/>
<path d="M232 7704 c10 -10 20 -15 24 -12 3 4 -5 12 -18 18 -22 12 -22 12 -6
-6z"/>
<path d="M2874 7705 c-10 -8 -14 -15 -8 -15 6 0 17 7 24 15 16 19 9 19 -16 0z"/>
<path d="M4770 7705 c-11 -13 -10 -14 4 -9 9 3 16 10 16 15 0 13 -6 11 -20 -6z"/>
<path d="M9186 7625 l-29 -66 23 -24 c27 -29 42 -31 60 -10 19 22 40 0 40 -41
0 -19 -2 -34 -5 -34 -3 0 -22 11 -43 24 -20 13 -48 27 -61 31 -22 7 -23 5 -16
-27 10 -45 11 -46 53 -59 55 -16 84 -41 76 -63 -9 -22 -53 -14 -73 14 -7 11
-20 20 -28 20 -13 0 -14 -13 -8 -84 4 -47 7 -106 7 -133 0 -55 22 -91 45 -72
9 8 13 37 13 96 0 75 2 84 18 81 15 -3 18 -21 26 -133 9 -134 16 -154 58 -155
13 0 18 10 20 43 l3 42 17 -31 c52 -95 100 -21 83 130 l-7 66 -49 22 c-38 18
-49 28 -49 45 0 27 8 28 55 6 28 -13 38 -14 47 -5 18 18 0 43 -55 72 -39 21
-47 30 -47 53 l0 29 46 -26 c53 -29 58 -31 48 -14 -4 7 -10 28 -14 47 -4 28
-13 39 -43 55 -29 15 -37 26 -37 47 0 44 -28 99 -50 99 -17 0 -20 -7 -20 -39
0 -42 -13 -60 -27 -39 -4 7 -6 23 -5 35 3 17 -27 63 -41 63 -1 0 -15 -29 -31
-65z m219 -486 c0 -48 -2 -54 -22 -57 -22 -3 -23 0 -23 69 l0 71 23 -14 c18
-13 22 -25 22 -69z"/>
<path d="M2814 7665 c-10 -8 -14 -15 -8 -15 6 0 17 7 24 15 16 19 9 19 -16 0z"/>
<path d="M307 7659 c7 -7 15 -10 18 -7 3 3 -2 9 -12 12 -14 6 -15 5 -6 -5z"/>
<path d="M1230 7649 c-22 -18 -22 -19 -3 -10 12 6 25 16 28 21 9 15 3 12 -25
-11z"/>
<path d="M4663 7641 c-61 -38 -66 -48 -8 -16 59 34 59 34 54 39 -2 2 -23 -8
-46 -23z"/>
<path d="M2717 7603 c-31 -21 -52 -40 -47 -41 6 -2 27 10 48 26 20 16 46 34
57 40 11 6 15 12 9 12 -6 0 -36 -17 -67 -37z"/>
<path d="M7640 7636 c0 -2 46 -32 103 -66 56 -34 126 -78 154 -96 57 -37 72
-42 53 -19 -7 8 -16 15 -21 15 -4 0 -34 17 -66 38 -32 22 -62 41 -68 43 -24
10 -126 72 -131 80 -5 9 -24 13 -24 5z"/>
<path d="M5640 7298 l1 -323 261 -155 c143 -85 317 -190 386 -232 69 -42 129
-75 134 -72 4 3 8 142 8 310 0 248 -2 304 -13 304 -8 0 -22 9 -31 19 -10 11
-59 45 -109 75 -51 31 -166 103 -257 160 -91 58 -208 131 -260 163 -52 32
-100 62 -107 66 -11 6 -13 -54 -13 -315z m211 101 c12 -17 26 -48 30 -68 4
-20 12 -53 17 -73 6 -21 7 -38 4 -38 -9 0 -126 69 -152 90 l-25 20 26 23 c14
12 33 34 42 50 22 35 31 34 58 -4z m47 -8 c3 -8 -1 -12 -9 -9 -7 2 -15 10 -17
17 -3 8 1 12 9 9 7 -2 15 -10 17 -17z m112 -41 c0 -5 -4 -10 -10 -10 -5 0 -10
5 -10 10 0 6 5 10 10 10 6 0 10 -4 10 -10z m46 -34 c11 -8 20 -27 20 -45 1
-17 2 -44 3 -61 1 -19 6 -30 16 -30 8 0 15 -5 15 -11 0 -5 -4 -7 -10 -4 -5 3
-10 2 -10 -4 0 -5 5 -13 10 -16 6 -3 10 -1 10 6 0 11 16 9 50 -5 12 -5 16 0
15 21 0 37 35 39 52 2 17 -34 44 -141 38 -147 -7 -7 -105 40 -105 50 0 18 -19
7 -23 -14 -4 -19 -5 -18 -4 4 2 33 -39 74 -59 57 -15 -12 -58 6 -49 21 3 5
-17 21 -45 37 -27 15 -50 32 -50 36 0 5 12 21 28 36 15 16 35 40 45 54 21 31
26 32 53 13z m174 -122 c0 -3 -7 -1 -15 6 -8 7 -15 17 -15 22 0 5 7 3 15 -6 8
-8 15 -18 15 -22z m-361 -64 c127 -84 139 -96 123 -112 -12 -12 -65 16 -184
100 -51 35 -78 60 -78 73 0 10 5 19 10 19 6 0 64 -36 129 -80z m88 -162 c23
-15 44 -28 47 -28 2 0 53 -29 113 -65 106 -64 130 -75 118 -55 -3 6 -1 10 5
10 7 0 10 -7 7 -15 -4 -8 -2 -17 3 -20 6 -4 10 -25 10 -49 0 -23 5 -47 12 -54
7 -7 8 -12 3 -12 -10 0 -208 115 -245 143 -21 15 -80 51 -272 166 -23 13 -28
23 -28 57 0 22 3 43 6 47 6 6 142 -71 221 -125z m110 17 c17 -15 21 -23 11
-19 -10 3 -18 10 -18 15 0 5 -5 9 -11 9 -6 0 0 -13 13 -29 13 -15 28 -26 35
-24 11 4 33 -26 33 -46 0 -8 -99 42 -128 64 -5 4 21 55 29 55 4 0 21 -11 36
-25z m235 -132 c-5 -7 -8 5 -9 30 -1 38 0 39 8 13 4 -16 5 -35 1 -43z m-128
12 c4 -13 2 -14 -14 -5 -23 13 -26 20 -6 20 8 0 16 -7 20 -15z m-74 -130 c7
-9 8 -15 2 -15 -5 0 -12 7 -16 15 -3 8 -4 15 -2 15 2 0 9 -7 16 -15z m201
-115 l-10 -25 0 27 c-1 14 2 35 6 45 7 17 8 17 11 -2 1 -12 -2 -32 -7 -45z"/>
<path d="M6040 7130 c8 -5 20 -10 25 -10 6 0 3 5 -5 10 -8 5 -19 10 -25 10 -5
0 -3 -5 5 -10z"/>
<path d="M1139 7589 c-19 -16 -20 -18 -4 -10 34 17 51 31 39 31 -7 0 -22 -9
-35 -21z"/>
<path d="M4574 7584 c-18 -14 -18 -15 4 -4 12 6 22 13 22 15 0 8 -5 6 -26 -11z"/>
<path d="M430 7586 c0 -2 7 -7 16 -10 8 -3 12 -2 9 4 -6 10 -25 14 -25 6z"/>
<path d="M1079 7549 l-24 -20 28 17 c15 9 27 18 27 20 0 8 -8 4 -31 -17z"/>
<path d="M4524 7554 c-18 -14 -18 -15 4 -4 12 6 22 13 22 15 0 8 -5 6 -26 -11z"/>
<path d="M510 7540 c8 -5 20 -10 25 -10 6 0 3 5 -5 10 -8 5 -19 10 -25 10 -5
0 -3 -5 5 -10z"/>
<path d="M2600 7524 c-53 -38 -49 -49 4 -14 25 17 46 33 46 36 0 9 -16 1 -50
-22z"/>
<path d="M1272 7524 c-13 -9 -22 -26 -22 -42 0 -52 -51 -182 -71 -182 -5 0 -9
-4 -9 -10 0 -5 6 -9 13 -7 7 1 12 -9 13 -23 2 -42 3 -44 25 -24 25 23 50 68
59 109 5 18 8 -11 8 -75 1 -112 -12 -182 -62 -317 -14 -40 -26 -80 -26 -89 0
-56 74 65 111 181 12 38 24 77 27 85 3 8 8 -4 12 -26 3 -23 17 -55 31 -71 l25
-30 26 21 c14 12 29 36 33 53 6 29 4 34 -19 43 -56 21 -102 145 -82 224 9 35
25 33 33 -4 12 -64 44 -46 68 38 9 31 23 72 31 90 18 41 18 48 -2 56 -16 6
-51 -9 -110 -49 -50 -34 -64 -32 -62 8 1 34 -7 57 -20 57 -4 0 -18 -7 -30 -16z
m151 -149 c-3 -9 -8 -14 -10 -11 -3 3 -2 9 2 15 9 16 15 13 8 -4z"/>
<path d="M1010 7510 c-14 -11 -21 -20 -17 -20 5 0 20 9 34 20 14 11 22 20 17
20 -5 0 -20 -9 -34 -20z"/>
<path d="M575 7500 c3 -5 11 -10 16 -10 6 0 7 5 4 10 -3 6 -11 10 -16 10 -6 0
-7 -4 -4 -10z"/>
<path d="M630 7476 c0 -2 8 -10 18 -17 15 -13 16 -12 3 4 -13 16 -21 21 -21
13z"/>
<path d="M938 7462 c-16 -10 -28 -21 -28 -25 0 -7 37 15 69 40 14 10 -18 -1
-41 -15z"/>
<path d="M2509 7459 c-23 -19 -23 -20 -2 -10 12 6 25 16 28 21 10 16 -1 12
-26 -11z"/>
<path d="M9501 7283 c1 -109 4 -209 8 -222 3 -13 16 -28 28 -32 20 -7 23 -4
29 26 3 18 4 113 1 211 -5 171 -6 178 -29 196 -13 10 -26 18 -30 18 -5 0 -8
-89 -7 -197z"/>
<path d="M9600 7226 c0 -220 -2 -255 -16 -260 -8 -3 -26 1 -40 10 l-24 16 0
-43 c0 -24 4 -49 8 -55 27 -39 108 -58 130 -31 7 8 11 108 11 282 0 149 1 281
1 294 0 28 -15 41 -47 41 l-23 0 0 -254z"/>
<path d="M2454 7425 c-10 -8 -14 -15 -8 -15 6 0 17 7 24 15 16 19 9 19 -16 0z"/>
<path d="M7982 7424 c10 -10 20 -15 24 -12 3 4 -5 12 -18 18 -22 12 -22 12 -6
-6z"/>
<path d="M870 7420 c-9 -6 -10 -10 -3 -10 6 0 15 5 18 10 8 12 4 12 -15 0z"/>
<path d="M1201 7412 c-1 -13 -59 -52 -78 -52 -6 0 -9 8 -6 20 3 13 -1 22 -11
26 -22 8 -66 -32 -66 -61 0 -12 -14 -34 -30 -50 -34 -32 -38 -72 -7 -67 21 4
21 -5 2 -105 -18 -93 -19 -143 -4 -143 6 0 27 14 46 31 24 20 39 27 45 21 19
-19 -2 -57 -57 -101 -44 -34 -55 -49 -55 -72 0 -16 5 -29 10 -29 6 0 10 5 10
11 0 6 5 9 12 7 6 -2 25 9 41 25 34 33 50 23 40 -25 -3 -15 -2 -35 1 -44 6
-15 9 -15 30 5 18 17 26 38 31 82 6 48 10 59 25 59 17 0 30 18 30 42 0 6 -10
8 -25 4 -14 -4 -25 -4 -25 -1 0 3 15 30 34 60 19 29 32 56 29 59 -3 3 -7 18
-8 33 -4 55 -3 55 -29 38 -21 -14 -24 -14 -30 0 -3 9 -6 34 -6 56 0 41 -9 49
-30 24 -14 -17 -30 -20 -30 -5 0 6 16 18 35 27 42 20 88 85 82 116 -2 12 -5
16 -6 9z m-120 -295 c-10 -26 -31 -38 -31 -17 0 16 21 114 28 130 11 25 14
-84 3 -113z m99 -26 c-5 -11 -15 -23 -20 -26 -14 -9 -12 19 2 33 19 19 30 14
18 -7z"/>
<path d="M8020 7406 c0 -8 97 -66 110 -66 8 0 -12 16 -44 35 -58 35 -66 39
-66 31z"/>
<path d="M2384 7379 c-19 -22 -19 -22 3 -10 24 12 39 31 25 31 -5 0 -17 -10
-28 -21z"/>
<path d="M4245 7390 c-3 -6 1 -7 9 -4 18 7 21 14 7 14 -6 0 -13 -4 -16 -10z"/>
<path d="M830 7363 c0 -5 5 -15 10 -23 8 -12 10 -11 10 8 0 12 -4 22 -10 22
-5 0 -10 -3 -10 -7z"/>
<path d="M2320 7340 c-14 -11 -20 -20 -14 -20 7 0 22 9 35 20 31 25 12 26 -21
0z"/>
<path d="M4174 7344 c-18 -14 -18 -15 4 -4 12 6 22 13 22 15 0 8 -5 6 -26 -11z"/>
<path d="M4124 7314 c-18 -14 -18 -15 4 -4 12 6 22 13 22 15 0 8 -5 6 -26 -11z"/>
<path d="M8150 7325 c0 -2 10 -10 23 -16 20 -11 21 -11 8 4 -13 16 -31 23 -31
12z"/>
<path d="M2259 7300 c-13 -10 -19 -19 -13 -20 6 0 19 9 29 20 23 26 14 26 -16
0z"/>
<path d="M4881 7293 c-5 -10 -13 -16 -17 -14 -11 5 -30 -26 -22 -35 4 -3 17 3
29 15 13 12 26 21 31 21 4 0 8 7 8 15 0 20 -17 19 -29 -2z"/>
<path d="M8153 7235 c0 -38 2 -53 4 -32 2 20 2 52 0 70 -2 17 -4 1 -4 -38z"/>
<path d="M8200 7296 c0 -6 66 -46 76 -46 4 0 -7 11 -26 25 -31 23 -50 31 -50
21z"/>
<path d="M4054 7274 c-18 -14 -18 -15 4 -4 12 6 22 13 22 15 0 8 -5 6 -26 -11z"/>
<path d="M2163 7242 c-29 -20 -51 -38 -48 -40 4 -5 115 66 115 74 0 9 -17 1
-67 -34z"/>
<path d="M4790 7240 c0 -5 -6 -10 -13 -10 -17 0 -51 -62 -45 -81 7 -21 68 48
68 77 0 13 -2 24 -5 24 -3 0 -5 -4 -5 -10z"/>
<path d="M3980 7230 c-9 -6 -10 -10 -3 -10 6 0 15 5 18 10 8 12 4 12 -15 0z"/>
<path d="M8291 7236 c2 -2 15 -9 29 -15 24 -11 24 -11 6 3 -16 13 -49 24 -35
12z"/>
<path d="M4865 7205 c-23 -19 -26 -24 -12 -25 9 0 17 5 17 10 0 6 9 10 20 10
11 0 20 7 20 15 0 21 -10 19 -45 -10z"/>
<path d="M4987 7200 c-24 -19 -39 -63 -19 -58 6 2 46 -18 94 -47 54 -32 370
-226 823 -505 154 -95 296 -181 315 -192 19 -11 68 -42 110 -68 41 -26 91 -56
110 -68 19 -12 69 -42 110 -67 41 -25 104 -64 140 -85 36 -22 72 -44 80 -50 8
-5 35 -21 60 -36 25 -15 68 -41 95 -59 50 -32 499 -308 608 -373 52 -32 57
-38 58 -71 0 -20 2 -438 4 -929 1 -491 5 -895 7 -897 3 -3 61 38 105 75 7 5
16 10 21 10 6 0 12 10 16 23 11 42 7 1709 -5 1751 -6 21 -21 48 -33 60 -21 20
-37 30 -136 86 -25 14 -71 42 -103 63 -31 20 -60 37 -62 37 -3 0 -45 26 -93
57 -48 32 -89 58 -92 58 -5 1 -35 19 -145 90 -27 18 -131 81 -230 140 -99 60
-199 121 -222 137 -23 15 -44 28 -46 28 -3 0 -31 18 -63 39 -33 21 -151 95
-264 163 -113 69 -277 169 -365 223 -88 54 -254 155 -370 225 -187 112 -278
167 -341 207 -84 54 -129 63 -167 33z"/>
<path d="M3930 7200 c-9 -6 -10 -10 -3 -10 6 0 15 5 18 10 8 12 4 12 -15 0z"/>
<path d="M8360 7202 c0 -12 19 -26 26 -19 2 2 -2 10 -11 17 -9 8 -15 8 -15 2z"/>
<path d="M2069 7181 c-13 -11 -19 -20 -14 -20 14 0 50 28 43 34 -3 3 -16 -3
-29 -14z"/>
<path d="M8405 7170 c3 -5 11 -10 16 -10 6 0 7 5 4 10 -3 6 -11 10 -16 10 -6
0 -7 -4 -4 -10z"/>
<path d="M3845 7150 c-16 -11 -25 -20 -20 -20 10 0 64 39 55 40 -3 0 -18 -9
-35 -20z"/>
<path d="M1947 7104 c-48 -31 -85 -59 -82 -62 3 -3 18 4 33 16 15 12 41 28 57
37 30 15 95 64 85 64 -3 0 -45 -25 -93 -55z"/>
<path d="M8440 7156 c0 -9 111 -79 116 -73 3 2 -10 13 -29 24 -19 11 -46 28
-60 38 -15 9 -27 14 -27 11z"/>
<path d="M4637 7132 c-19 -20 -23 -37 -7 -27 6 3 10 1 10 -4 0 -6 -4 -11 -10
-11 -5 0 -10 -7 -10 -16 0 -13 5 -12 30 6 19 14 30 30 30 46 0 29 -20 31 -43
6z"/>
<path d="M4871 7136 c-21 -12 -23 -20 -25 -89 -1 -43 -1 -77 2 -77 2 0 16 9
31 20 26 18 28 24 28 90 0 38 -3 70 -6 70 -3 -1 -17 -7 -30 -14z m19 -30 c0
-2 -7 -7 -16 -10 -8 -3 -12 -2 -9 4 6 10 25 14 25 6z m-10 -36 c0 -5 -2 -10
-4 -10 -3 0 -8 5 -11 10 -3 6 -1 10 4 10 6 0 11 -4 11 -10z"/>
<path d="M4557 7097 c-28 -24 -36 -57 -14 -57 14 0 57 36 57 48 0 4 -4 13 -8
20 -6 9 -15 7 -35 -11z"/>
<path d="M4753 7093 c-22 -15 -33 -63 -15 -63 15 0 52 46 52 63 0 21 -8 21
-37 0z"/>
<path d="M6850 7096 c0 -3 9 -10 20 -16 11 -6 20 -8 20 -6 0 3 -9 10 -20 16
-11 6 -20 8 -20 6z"/>
<path d="M50 7076 c0 -2 8 -10 18 -17 15 -13 16 -12 3 4 -13 16 -21 21 -21 13z"/>
<path d="M8577 7068 c7 -8 36 -27 65 -43 29 -15 46 -21 38 -13 -22 22 -117 74
-103 56z"/>
<path d="M530 7060 c-8 -5 -12 -12 -9 -15 4 -3 12 1 19 10 14 17 11 19 -10 5z"/>
<path d="M4456 7039 c-23 -18 -36 -49 -20 -49 16 0 44 22 39 31 -4 5 -1 8 6 7
7 -2 15 5 17 15 5 23 -9 22 -42 -4z"/>
<path d="M4645 7026 c-34 -27 -28 -45 10 -28 15 7 25 20 25 32 0 25 1 25 -35
-4z"/>
<path d="M6940 7042 c0 -5 7 -15 15 -22 8 -7 15 -8 15 -2 0 5 -7 15 -15 22 -8
7 -15 8 -15 2z"/>
<path d="M1818 7022 c-16 -10 -28 -21 -28 -25 0 -5 14 0 30 10 17 9 30 21 30
25 0 10 1 10 -32 -10z"/>
<path d="M130 7020 c8 -5 20 -10 25 -10 6 0 3 5 -5 10 -8 5 -19 10 -25 10 -5
0 -3 -5 5 -10z"/>
<path d="M465 7020 c-3 -6 1 -7 9 -4 18 7 21 14 7 14 -6 0 -13 -4 -16 -10z"/>
<path d="M4535 6977 c-10 -37 -3 -41 24 -16 12 12 20 24 16 27 -3 4 -10 0 -15
-7 -6 -11 -9 -10 -12 5 -4 15 -6 14 -13 -9z"/>
<path d="M4758 6979 c-16 -11 -28 -27 -28 -35 0 -13 5 -12 30 3 17 9 30 25 30
35 0 22 1 22 -32 -3z"/>
<path d="M8719 6980 c13 -11 28 -20 33 -20 6 0 -1 9 -15 20 -33 26 -49 26 -18
0z"/>
<path d="M190 6986 c0 -3 9 -10 20 -16 11 -6 20 -8 20 -6 0 3 -9 10 -20 16
-11 6 -20 8 -20 6z"/>
<path d="M394 6974 c-18 -14 -18 -15 4 -4 12 6 22 13 22 15 0 8 -5 6 -26 -11z"/>
<path d="M1746 6975 c-11 -8 -18 -17 -15 -19 2 -3 15 4 29 14 14 11 21 20 15
19 -5 0 -19 -6 -29 -14z"/>
<path d="M4342 6964 c-12 -8 -22 -24 -22 -35 0 -17 3 -18 20 -9 11 6 18 15 15
21 -4 5 -1 8 6 7 7 -2 15 5 17 15 4 21 -7 22 -36 1z"/>
<path d="M4448 6954 c-16 -8 -28 -21 -28 -30 0 -13 4 -13 30 1 17 9 30 22 30
30 0 18 2 18 -32 -1z"/>
<path d="M8774 6951 c4 -6 16 -16 28 -22 15 -8 18 -8 14 0 -4 6 -16 16 -28 22
-15 8 -18 8 -14 0z"/>
<path d="M260 6947 c0 -9 40 -35 44 -28 3 4 -6 13 -19 19 -14 7 -25 10 -25 9z"/>
<path d="M1679 6929 c-23 -19 -23 -20 -2 -10 12 6 25 16 28 21 10 16 -1 12
-26 -11z"/>
<path d="M4640 6937 c-27 -21 -23 -39 7 -35 20 2 29 9 31 26 4 24 -14 29 -38
9z"/>
<path d="M4248 6914 c-17 -8 -28 -23 -28 -35 0 -20 0 -20 30 1 17 12 30 28 30
36 0 17 2 17 -32 -2z"/>
<path d="M4571 6914 c0 -11 3 -14 6 -6 3 7 2 16 -1 19 -3 4 -6 -2 -5 -13z"/>
<path d="M4873 6920 c-17 -7 -23 -18 -23 -39 0 -29 2 -30 24 -20 13 6 27 21
30 33 11 40 8 42 -31 26z"/>
<path d="M4747 6902 c-10 -10 -17 -26 -17 -36 0 -14 3 -15 23 -5 28 15 37 28
30 46 -7 18 -17 16 -36 -5z"/>
<path d="M8830 6916 c0 -2 15 -13 33 -24 19 -11 47 -28 63 -38 l29 -18 -19 22
c-11 12 -23 22 -28 22 -6 0 -21 9 -35 20 -24 18 -43 26 -43 16z"/>
<path d="M335 6900 c3 -5 11 -10 16 -10 6 0 7 5 4 10 -3 6 -11 10 -16 10 -6 0
-7 -4 -4 -10z"/>
<path d="M1920 6883 c-1 -16 -3 -521 -6 -1124 -4 -771 -2 -1108 5 -1136 13
-46 47 -67 100 -61 l31 3 0 1153 c0 919 2 1152 12 1152 18 0 23 -2260 6 -2272
-7 -4 -9 -10 -5 -14 4 -5 16 1 26 12 18 18 19 64 25 1160 3 628 3 1144 -1
1148 -3 3 -14 -1 -24 -10 -14 -12 -29 -14 -73 -9 -31 4 -59 11 -62 16 -12 20
-34 8 -34 -18z"/>
<path d="M1606 6885 c-11 -8 -15 -15 -10 -15 6 0 19 7 30 15 10 8 15 14 9 14
-5 0 -19 -6 -29 -14z"/>
<path d="M3423 6873 c-1 -19 1 -22 8 -12 11 17 12 39 2 39 -5 0 -9 -12 -10
-27z"/>
<path d="M235 6880 c-3 -6 1 -7 9 -4 18 7 21 14 7 14 -6 0 -13 -4 -16 -10z"/>
<path d="M4343 6865 c-22 -15 -32 -55 -15 -55 20 0 44 28 40 48 -3 21 -4 22
-25 7z"/>
<path d="M4425 6860 c-16 -18 -16 -20 -1 -26 16 -6 46 11 46 26 0 18 -29 17
-45 0z"/>
<path d="M405 6860 c3 -5 11 -10 16 -10 6 0 7 5 4 10 -3 6 -11 10 -16 10 -6 0
-7 -4 -4 -10z"/>
<path d="M3245 6836 c-64 -35 -184 -107 -225 -136 -14 -10 -70 -41 -125 -70
-55 -29 -119 -66 -142 -82 -43 -29 -43 -30 -43 -88 0 -33 3 -60 8 -60 4 0 24
10 44 23 20 12 115 69 210 126 95 58 189 115 209 128 19 13 38 23 42 23 4 0
34 17 67 38 37 23 58 42 55 50 -3 8 -5 29 -5 48 0 44 -16 44 -95 0z m-1 -85
c-4 -17 -13 -32 -22 -36 -36 -14 -45 64 -9 88 20 13 23 13 29 -4 4 -11 5 -32
2 -48z m-93 -64 c-8 -8 -11 2 -10 34 l1 44 10 -34 c6 -23 6 -37 -1 -44z m-29
26 c7 -28 -1 -40 -39 -64 -29 -18 -37 -19 -44 -8 -17 27 -9 49 24 69 40 25 53
25 59 3z m-96 -68 c5 -19 0 -31 -17 -49 -42 -40 -57 -40 -61 2 -2 30 2 40 22
54 35 23 49 22 56 -7z m-106 -64 c0 -44 -26 -64 -47 -36 -13 19 -7 44 15 63
25 20 32 14 32 -27z m-72 -43 c-3 -36 -7 -43 -30 -49 -22 -6 -28 -4 -28 9 0
10 -3 26 -6 38 -4 15 1 23 18 31 42 21 49 16 46 -29z"/>
<path d="M3070 6670 c-9 -6 -10 -10 -3 -10 6 0 15 5 18 10 8 12 4 12 -15 0z"/>
<path d="M190 6850 c-9 -6 -10 -10 -3 -10 6 0 15 5 18 10 8 12 4 12 -15 0z"/>
<path d="M1550 6849 c0 -5 5 -7 10 -4 6 3 10 8 10 11 0 2 -4 4 -10 4 -5 0 -10
-5 -10 -11z"/>
<path d="M4128 6844 c-21 -11 -28 -22 -28 -44 0 -36 10 -38 47 -6 22 19 25 27
18 44 -9 19 -12 20 -37 6z"/>
<path d="M4640 6840 c-28 -28 -25 -42 8 -38 21 2 28 9 30 31 4 32 -10 35 -38
7z m20 -14 c0 -3 -4 -8 -10 -11 -5 -3 -10 -1 -10 4 0 6 5 11 10 11 6 0 10 -2
10 -4z"/>
<path d="M4237 6822 c-10 -10 -17 -29 -17 -43 0 -14 3 -19 8 -13 4 7 16 13 27
15 13 3 21 14 23 32 4 32 -16 36 -41 9z"/>
<path d="M4553 6816 c-23 -28 -31 -66 -15 -66 20 0 43 40 40 67 l-3 28 -22
-29z"/>
<path d="M6660 6825 c0 -17 56 -49 71 -40 5 4 8 2 7 -4 -4 -12 71 -53 83 -45
5 3 9 1 9 -5 0 -8 84 -71 96 -71 2 0 4 6 4 13 0 14 -106 83 -121 79 -5 -1 -12
5 -15 13 -4 8 -10 15 -15 15 -4 0 -28 14 -52 30 -50 33 -67 37 -67 15z"/>
<path d="M8960 6836 c0 -7 102 -67 106 -63 2 2 -19 18 -47 35 -50 32 -59 36
-59 28z"/>
<path d="M475 6820 c3 -5 11 -10 16 -10 6 0 7 5 4 10 -3 6 -11 10 -16 10 -6 0
-7 -4 -4 -10z"/>
<path d="M1494 6815 c-10 -8 -14 -15 -8 -15 6 0 17 7 24 15 16 19 9 19 -16 0z"/>
<path d="M4867 6814 c-25 -14 -38 -44 -18 -44 20 0 42 13 51 31 14 25 0 30
-33 13z"/>
<path d="M4453 6797 c-37 -25 -44 -57 -14 -57 27 0 51 27 51 56 0 13 -1 24 -2
23 -2 0 -18 -10 -35 -22z"/>
<path d="M4775 6810 c-3 -5 -15 -10 -26 -10 -17 0 -20 -6 -17 -32 2 -17 9 -34
17 -36 10 -3 12 2 7 21 -3 15 -1 29 6 33 6 4 9 3 5 -2 -3 -5 1 -18 9 -29 13
-17 14 -15 14 23 0 42 -4 50 -15 32z"/>
<path d="M7324 6791 c21 -23 26 -26 26 -11 0 5 -10 15 -22 21 -23 12 -23 12
-4 -10z"/>
<path d="M64 6774 c-18 -14 -18 -15 4 -4 12 6 22 13 22 15 0 8 -5 6 -26 -11z"/>
<path d="M1434 6775 c-10 -8 -14 -14 -9 -14 6 0 19 6 29 14 11 8 15 15 10 15
-6 0 -19 -7 -30 -15z"/>
<path d="M4005 6770 c-16 -11 -25 -20 -20 -20 10 0 64 39 55 40 -3 0 -18 -9
-35 -20z"/>
<path d="M4346 6771 c-21 -23 -30 -51 -17 -51 20 0 43 28 39 49 l-3 23 -19
-21z"/>
<path d="M7360 6776 c0 -2 7 -9 15 -16 9 -7 15 -8 15 -2 0 5 -7 12 -15 16 -8
3 -15 4 -15 2z"/>
<path d="M4646 6749 c-15 -12 -25 -23 -23 -26 9 -8 56 9 61 23 9 23 -10 25
-38 3z"/>
<path d="M9100 6751 c14 -12 41 -31 60 -42 19 -11 50 -29 68 -40 17 -12 32
-18 32 -15 0 6 -72 54 -145 95 -38 22 -39 22 -15 2z"/>
<path d="M1381 6739 c-13 -10 -19 -19 -15 -19 13 1 48 29 43 34 -2 2 -15 -4
-28 -15z"/>
<path d="M10 6740 c-9 -6 -10 -10 -3 -10 6 0 15 5 18 10 8 12 4 12 -15 0z"/>
<path d="M600 6746 c0 -2 7 -7 16 -10 8 -3 12 -2 9 4 -6 10 -25 14 -25 6z"/>
<path d="M4123 6738 c-13 -6 -23 -19 -23 -30 0 -17 2 -18 30 -3 17 9 30 22 30
30 0 17 -6 18 -37 3z"/>
<path d="M4236 6729 c-23 -18 -36 -49 -20 -49 15 0 64 43 64 56 0 19 -13 18
-44 -7z"/>
<path d="M4871 6736 c-21 -11 -39 -46 -25 -46 17 0 64 33 64 45 0 18 -8 18
-39 1z"/>
<path d="M1313 6694 l-28 -26 33 22 c29 20 39 30 28 30 -3 0 -18 -12 -33 -26z"/>
<path d="M4433 6703 c-7 -2 -13 -13 -13 -24 0 -18 2 -19 30 -4 41 21 26 46
-17 28z"/>
<path d="M4542 6689 c-7 -11 -11 -23 -9 -26 8 -7 47 21 44 31 -6 18 -22 16
-35 -5z"/>
<path d="M4742 6698 c-7 -7 -12 -20 -12 -30 0 -17 2 -17 28 -4 16 8 29 22 29
30 0 19 -28 21 -45 4z"/>
<path d="M7502 6684 c10 -10 20 -16 22 -13 3 3 -5 11 -17 18 -21 13 -21 12 -5
-5z"/>
<path d="M4139 6673 c-36 -17 -51 -37 -43 -56 5 -15 8 -15 31 0 21 14 50 62
41 68 -2 1 -15 -4 -29 -12z"/>
<path d="M4346 6672 c-23 -27 -18 -48 8 -29 10 7 17 21 15 31 -4 17 -5 17 -23
-2z"/>
<path d="M6790 6686 c0 -3 9 -10 20 -16 11 -6 20 -8 20 -6 0 3 -9 10 -20 16
-11 6 -20 8 -20 6z"/>
<path d="M1249 6653 c-13 -15 -12 -15 9 -4 23 12 28 21 13 21 -5 0 -15 -7 -22
-17z"/>
<path d="M4659 6658 c-9 -7 -19 -25 -22 -41 -4 -24 -2 -27 17 -21 28 9 28 8
24 44 -3 27 -5 29 -19 18z"/>
<path d="M7150 6666 c0 -2 7 -7 16 -10 8 -3 12 -2 9 4 -6 10 -25 14 -25 6z"/>
<path d="M3610 6574 c-74 -46 -142 -87 -150 -91 -9 -5 -64 -37 -123 -73 -59
-36 -130 -78 -157 -95 -28 -16 -106 -64 -174 -105 l-125 -75 2 -62 c1 -35 3
-63 5 -63 2 0 41 22 86 49 44 27 95 57 113 67 95 55 282 169 548 332 132 82
136 87 133 146 -2 27 -7 51 -13 52 -5 1 -71 -35 -145 -82z m-223 -236 c-3 -8
-6 -5 -6 6 -1 11 2 17 5 13 3 -3 4 -12 1 -19z m-341 -193 c-5 -12 -15 -22 -20
-22 -6 0 -19 -4 -28 -8 -11 -4 -18 -3 -18 3 0 6 -3 17 -6 26 -4 11 -1 16 10
16 9 0 16 4 16 8 0 5 10 14 23 19 27 13 39 -9 23 -42z m-89 -37 c-3 -8 -6 -5
-6 6 -1 11 2 17 5 13 3 -3 4 -12 1 -19z"/>
<path d="M4235 6636 c-26 -26 -31 -41 -16 -50 12 -8 61 32 61 49 0 26 -20 26
-45 1z"/>
<path d="M4873 6633 c-17 -11 -23 -25 -22 -52 0 -21 3 -30 7 -21 4 8 13 15 20
16 6 1 17 2 22 3 11 1 14 71 3 70 -5 0 -18 -7 -30 -16z m22 -23 c3 -5 1 -10
-4 -10 -6 0 -11 5 -11 10 0 6 2 10 4 10 3 0 8 -4 11 -10z"/>
<path d="M9275 6640 c3 -5 11 -10 16 -10 6 0 7 5 4 10 -3 6 -11 10 -16 10 -6
0 -7 -4 -4 -10z"/>
<path d="M6870 6636 c0 -2 7 -9 15 -16 9 -7 15 -8 15 -2 0 5 -7 12 -15 16 -8
3 -15 4 -15 2z"/>
<path d="M1157 6598 c-26 -17 -46 -33 -43 -35 4 -4 106 57 106 63 0 9 -18 0
-63 -28z"/>
<path d="M7227 6619 c7 -7 15 -10 18 -7 3 3 -2 9 -12 12 -14 6 -15 5 -6 -5z"/>
<path d="M4422 6600 c0 -14 2 -19 5 -12 2 6 2 18 0 25 -3 6 -5 1 -5 -13z"/>
<path d="M4554 6606 c-10 -8 -19 -25 -19 -39 -1 -22 1 -24 22 -14 13 6 23 16
23 23 0 7 3 19 6 28 8 20 -6 21 -32 2z"/>
<path d="M9332 6604 c10 -10 20 -16 22 -13 3 3 -5 11 -17 18 -21 13 -21 12 -5
-5z"/>
<path d="M4765 6597 c-24 -15 -35 -28 -35 -45 0 -9 7 -9 30 3 18 9 30 23 30
35 0 11 -1 20 -2 19 -2 0 -12 -6 -23 -12z"/>
<path d="M4348 6593 c-10 -2 -18 -11 -18 -19 0 -18 15 -18 34 2 25 24 22 27
-16 17z"/>
<path d="M6930 6596 c0 -2 7 -7 16 -10 8 -3 12 -2 9 4 -6 10 -25 14 -25 6z"/>
<path d="M9370 6580 c0 -5 5 -10 11 -10 5 0 7 5 4 10 -3 6 -8 10 -11 10 -2 0
-4 -4 -4 -10z"/>
<path d="M4128 6564 c-27 -14 -39 -44 -18 -44 13 0 50 37 50 50 0 12 1 12 -32
-6z"/>
<path d="M4457 6564 c-15 -8 -25 -19 -22 -24 3 -5 1 -11 -4 -15 -6 -3 -8 -12
-5 -20 5 -13 10 -13 35 1 22 11 29 22 29 44 0 17 -1 30 -2 30 -2 -1 -16 -8
-31 -16z"/>
<path d="M6681 6554 c16 -19 69 -47 69 -36 0 11 -56 52 -71 52 -8 0 -8 -5 2
-16z"/>
<path d="M1035 6520 c-33 -22 -57 -40 -54 -40 12 0 97 51 109 65 19 22 11 19
-55 -25z"/>
<path d="M4245 6547 c-21 -12 -36 -29 -31 -34 6 -6 66 29 66 38 0 12 -10 11
-35 -4z"/>
<path d="M4653 6553 c-7 -2 -13 -16 -13 -29 0 -21 3 -23 19 -15 38 21 32 60
-6 44z"/>
<path d="M4753 6516 c-15 -13 -24 -28 -20 -32 11 -11 61 21 65 40 5 23 -13 20
-45 -8z"/>
<path d="M4866 6515 c-24 -23 -34 -45 -19 -45 11 0 73 51 73 61 0 17 -27 9
-54 -16z"/>
<path d="M4348 6509 c-11 -6 -18 -21 -17 -37 1 -21 2 -22 6 -7 7 29 23 43 18
16 -3 -19 -2 -21 10 -11 15 13 21 50 8 50 -5 0 -16 -5 -25 -11z"/>
<path d="M4569 6515 c-1 -6 -1 -19 -1 -30 1 -17 0 -17 -4 -2 -9 30 -34 20 -34
-13 0 -30 0 -30 24 -15 29 19 40 45 26 59 -6 6 -10 6 -11 1z"/>
<path d="M6760 6513 c0 -5 9 -14 20 -21 11 -7 20 -8 20 -2 0 5 -9 14 -20 20
-11 6 -20 7 -20 3z"/>
<path d="M7445 6490 c3 -5 11 -10 16 -10 6 0 7 5 4 10 -3 6 -11 10 -16 10 -6
0 -7 -4 -4 -10z"/>
<path d="M4103 6465 c-9 -25 2 -27 22 -5 17 18 17 20 1 20 -9 0 -19 -7 -23
-15z"/>
<path d="M4453 6463 c-13 -9 -23 -26 -23 -39 0 -22 2 -23 20 -12 19 12 46 69
32 67 -4 0 -17 -7 -29 -16z"/>
<path d="M4648 6455 c-38 -32 -36 -50 2 -30 17 9 30 17 30 19 0 3 3 11 6 20 9
23 -7 19 -38 -9z"/>
<path d="M6835 6456 c16 -13 34 -22 39 -19 11 7 -34 42 -54 43 -9 0 -3 -10 15
-24z"/>
<path d="M936 6455 c-11 -8 -15 -15 -10 -15 6 0 19 7 30 15 10 8 15 14 9 14
-5 0 -19 -6 -29 -14z"/>
<path d="M4237 6452 c-18 -19 -23 -42 -9 -42 16 0 52 32 52 46 0 20 -24 18
-43 -4z"/>
<path d="M4765 6450 c-16 -10 -33 -28 -37 -39 -6 -17 0 -15 38 10 24 17 44 35
44 40 0 14 -12 11 -45 -11z"/>
<path d="M830 6431 c0 -12 5 -21 10 -21 6 0 10 6 10 14 0 8 -4 18 -10 21 -5 3
-10 -3 -10 -14z"/>
<path d="M4348 6419 c-24 -17 -39 -49 -23 -49 23 0 55 27 55 47 0 28 2 27 -32
2z"/>
<path d="M874 6415 c-10 -8 -14 -15 -8 -15 6 0 17 7 24 15 16 19 9 19 -16 0z"/>
<path d="M4128 6412 c-27 -17 -43 -40 -34 -50 7 -7 76 47 76 59 0 12 -10 10
-42 -9z"/>
<path d="M830 6385 c0 -8 5 -15 10 -15 6 0 10 7 10 15 0 8 -4 15 -10 15 -5 0
-10 -7 -10 -15z"/>
<path d="M4255 6388 c-24 -13 -35 -28 -35 -47 0 -11 3 -12 11 -4 6 6 18 9 25
6 15 -6 28 17 22 41 -2 12 -7 13 -23 4z"/>
<path d="M4533 6385 c-8 -22 6 -33 17 -15 13 20 12 30 0 30 -6 0 -13 -7 -17
-15z"/>
<path d="M7642 6374 c10 -10 20 -15 24 -12 3 4 -5 12 -18 18 -22 12 -22 12 -6
-6z"/>
<path d="M4453 6365 c-13 -5 -23 -16 -23 -23 0 -9 7 -11 23 -6 28 8 29 10 25
26 -2 10 -9 10 -25 3z"/>
<path d="M4649 6363 c-13 -17 -13 -17 6 -3 11 8 22 16 24 17 2 2 0 3 -6 3 -6
0 -17 -8 -24 -17z"/>
<path d="M7971 6363 c7 -12 15 -20 18 -17 3 2 -3 12 -13 22 -17 16 -18 16 -5
-5z"/>
<path d="M4131 6341 c-26 -23 -29 -30 -16 -35 25 -9 55 12 55 39 0 14 -1 25
-3 25 -2 0 -18 -13 -36 -29z m29 -5 c0 -3 -4 -8 -10 -11 -5 -3 -10 -1 -10 4 0
6 5 11 10 11 6 0 10 -2 10 -4z"/>
<path d="M4343 6337 c-11 -12 -18 -27 -16 -34 7 -18 53 6 53 28 0 28 -15 30
-37 6z"/>
<path d="M4453 6305 c-15 -11 -23 -26 -23 -45 0 -28 2 -29 24 -18 29 13 35 25
27 56 -6 21 -7 22 -28 7z"/>
<path d="M4855 6274 c-38 -23 -187 -110 -330 -194 -143 -84 -310 -184 -372
-222 l-111 -69 1 -419 0 -419 28 15 c36 18 157 36 234 34 59 -1 63 1 195 83
74 46 189 116 255 155 66 40 132 82 148 94 l27 23 -2 481 -3 481 -70 -43z m25
-468 c0 -196 -4 -317 -10 -321 -6 -4 -11 102 -12 301 l-3 306 -270 -162 c-148
-90 -296 -180 -327 -202 l-58 -39 0 -335 c0 -209 -4 -333 -9 -329 -6 3 -10
139 -11 335 l0 329 24 23 c40 36 645 406 669 407 4 1 7 -140 7 -313z m-129 7
c30 -50 33 -179 5 -233 -42 -79 -248 -251 -291 -243 -10 2 -85 -118 -85 -135
0 -31 -86 -40 -87 -9 0 7 -5 31 -11 54 -8 35 -7 49 7 77 16 30 16 37 4 61 -19
35 -18 153 2 228 29 112 75 177 153 220 l49 27 23 -24 c12 -14 19 -29 15 -35
-10 -16 4 -13 33 8 26 18 82 45 112 54 23 7 46 -9 71 -50z m-678 -38 c-3 -9
-8 -14 -10 -11 -3 3 -2 9 2 15 9 16 15 13 8 -4z m767 -240 c0 -14 -40 -48 -48
-41 -2 2 4 18 13 35 15 31 35 34 35 6z m-4 -94 c-4 -5 -39 -31 -79 -57 -39
-26 -108 -71 -152 -99 -175 -115 -338 -216 -342 -211 -7 7 176 131 440 298 28
18 132 78 135 78 2 0 1 -4 -2 -9z m-609 -373 c-3 -7 -5 -2 -5 12 0 14 2 19 5
13 2 -7 2 -19 0 -25z"/>
<path d="M4815 5530 c-3 -5 -1 -10 4 -10 6 0 11 5 11 10 0 6 -2 10 -4 10 -3 0
-8 -4 -11 -10z"/>
<path d="M5075 6309 c-4 -6 -5 -12 -2 -15 2 -3 7 2 10 11 7 17 1 20 -8 4z"/>
<path d="M7990 6110 c0 -117 2 -211 5 -209 7 7 7 410 1 417 -3 3 -6 -91 -6
-208z"/>
<path d="M4002 6294 c-12 -8 -22 -22 -22 -30 0 -11 8 -8 27 10 31 29 27 43 -5
20z"/>
<path d="M4540 6300 c-8 -5 -10 -10 -5 -10 6 0 17 5 25 10 8 5 11 10 5 10 -5
0 -17 -5 -25 -10z"/>
<path d="M4095 6290 c4 -6 11 -8 16 -5 14 9 11 15 -7 15 -8 0 -12 -5 -9 -10z"/>
<path d="M4242 6277 c-32 -34 -29 -48 8 -36 22 8 30 17 30 35 0 30 -11 30 -38
1z"/>
<path d="M4019 6263 c-13 -16 -12 -17 4 -4 9 7 17 15 17 17 0 8 -8 3 -21 -13z"/>
<path d="M4121 6249 c-18 -11 -31 -23 -28 -26 7 -6 67 28 67 39 0 11 0 11 -39
-13z"/>
<path d="M5717 6223 c3 -26 8 -49 13 -51 4 -2 65 -38 136 -82 70 -43 131 -77
136 -74 4 3 8 21 8 40 0 30 -5 38 -46 62 -25 15 -87 53 -137 85 -120 78 -115
77 -110 20z m56 -13 c14 -11 30 -20 35 -20 6 0 26 -15 45 -32 19 -18 41 -32
50 -30 18 4 31 -13 22 -29 -8 -11 -44 9 -86 48 -20 18 -28 21 -32 11 -3 -8 -6
-5 -6 7 -1 13 -4 16 -9 8 -6 -9 -15 -6 -35 13 -45 41 -32 61 16 24z m205 -122
c18 -18 15 -38 -5 -31 -27 9 -43 24 -37 34 7 13 28 11 42 -3z"/>
<path d="M4348 6246 c-10 -7 -18 -24 -18 -36 l0 -23 25 23 c38 36 32 66 -7 36z"/>
<path d="M6917 6229 c7 -7 15 -10 18 -7 3 3 -2 9 -12 12 -14 6 -15 5 -6 -5z"/>
<path d="M4008 6212 c-20 -12 -28 -25 -28 -45 0 -17 4 -26 11 -22 6 4 8 13 5
21 -4 10 3 14 22 14 19 0 23 3 13 9 -10 7 -10 10 -1 13 7 2 11 9 9 15 -3 8
-13 7 -31 -5z"/>
<path d="M4135 6193 c-19 -15 -19 -15 -1 -9 12 4 23 1 28 -6 5 -9 8 -6 8 10 0
26 -8 27 -35 5z"/>
<path d="M4237 6192 c-28 -30 -20 -43 13 -24 31 17 40 42 17 42 -8 0 -21 -8
-30 -18z"/>
<path d="M6997 6179 c7 -7 15 -10 18 -7 3 3 -2 9 -12 12 -14 6 -15 5 -6 -5z"/>
<path d="M4102 6160 c0 -14 2 -19 5 -12 2 6 2 18 0 25 -3 6 -5 1 -5 -13z"/>
<path d="M5177 6133 c15 -43 43 -58 43 -23 0 10 -9 24 -19 30 -27 14 -31 13
-24 -7z"/>
<path d="M4003 6118 c-15 -7 -23 -20 -23 -35 l0 -24 30 21 c17 12 30 28 30 36
0 16 -7 17 -37 2z"/>
<path d="M4102 6100 c0 -19 2 -27 5 -17 2 9 2 25 0 35 -3 9 -5 1 -5 -18z"/>
<path d="M7137 6089 c7 -7 15 -10 18 -7 3 3 -2 9 -12 12 -14 6 -15 5 -6 -5z"/>
<path d="M7207 6049 c7 -7 15 -10 18 -7 3 3 -2 9 -12 12 -14 6 -15 5 -6 -5z"/>
<path d="M4109 6031 c-13 -11 -20 -23 -16 -27 4 -4 17 2 29 14 28 28 18 38
-13 13z"/>
<path d="M5074 6035 c-4 -9 -1 -22 5 -28 9 -9 11 -8 6 5 -5 13 -2 15 14 11 27
-7 27 3 1 17 -16 9 -22 8 -26 -5z"/>
<path d="M4003 6028 c-27 -13 -32 -40 -5 -31 23 8 42 24 42 34 0 11 -9 10 -37
-3z"/>
<path d="M8925 5990 c-4 -6 -10 -8 -15 -5 -15 9 -60 -39 -66 -70 -5 -28 -1
-33 69 -83 42 -28 84 -52 95 -52 24 0 240 -211 421 -410 68 -74 127 -136 132
-138 5 -2 9 4 9 12 0 21 52 125 97 193 20 29 34 54 32 56 -2 1 -40 20 -83 42
-44 22 -134 71 -200 109 -67 38 -200 109 -296 158 -96 50 -182 96 -190 103 -8
7 -22 15 -30 18 -10 4 -8 6 7 6 12 1 28 -6 37 -14 10 -11 17 -12 22 -4 6 10 1
16 -34 37 -7 5 -10 15 -7 24 5 13 10 14 29 4 31 -16 57 -42 49 -50 -4 -3 4 -6
16 -6 14 0 20 -4 15 -12 -5 -8 -2 -9 9 -5 10 3 17 3 17 -1 0 -14 103 -87 118
-84 9 2 13 -2 9 -11 -4 -10 3 -17 23 -20 15 -3 35 -13 43 -22 9 -8 20 -15 24
-14 21 4 33 -2 33 -16 0 -20 36 -37 62 -29 16 5 20 3 15 -9 -3 -9 1 -18 10
-21 23 -9 28 1 12 21 -13 16 -12 17 4 4 10 -8 16 -20 13 -26 -6 -15 278 -165
312 -165 21 0 19 -5 -27 -57 -51 -57 -106 -150 -122 -206 -7 -23 -4 -36 13
-59 19 -28 24 -29 67 -23 54 8 110 43 156 100 63 76 97 188 72 235 -11 21 -20
25 -59 25 -26 1 -51 4 -55 9 -4 4 -3 6 2 4 6 -2 12 2 15 7 10 20 -287 155
-342 155 -28 0 -220 93 -304 148 -34 22 -92 65 -130 96 -70 56 -88 64 -99 46z
m568 -325 c12 -14 58 -43 102 -65 44 -22 74 -40 67 -40 -17 0 -192 88 -209
105 -12 13 -9 18 15 24 2 1 13 -10 25 -24z m148 -52 c13 -17 13 -17 -6 -3 -11
8 -22 16 -24 17 -2 2 0 3 6 3 6 0 17 -8 24 -17z m-136 -153 c10 -11 16 -20 13
-20 -3 0 -13 9 -23 20 -10 11 -16 20 -13 20 3 0 13 -9 23 -20z"/>
<path d="M5380 5982 c0 -4 10 -13 23 -21 22 -14 22 -14 3 8 -20 22 -26 25 -26
13z"/>
<path d="M4003 5968 c-12 -6 -23 -19 -26 -29 -7 -25 2 -24 37 4 32 26 25 41
-11 25z"/>
<path d="M7357 5959 c7 -7 15 -10 18 -7 3 3 -2 9 -12 12 -14 6 -15 5 -6 -5z"/>
<path d="M8983 5897 c0 -9 7 -12 20 -9 14 3 18 1 13 -6 -4 -7 -1 -12 8 -12 22
0 28 17 8 23 -9 2 -24 8 -33 11 -10 4 -16 2 -16 -7z"/>
<path d="M6650 5875 c0 -2 10 -10 23 -16 20 -11 21 -11 8 4 -13 16 -31 23 -31
12z"/>
<path d="M57 5859 c7 -7 15 -10 18 -7 3 3 -2 9 -12 12 -14 6 -15 5 -6 -5z"/>
<path d="M810 5860 c-9 -6 -10 -10 -3 -10 6 0 15 5 18 10 8 12 4 12 -15 0z"/>
<path d="M6726 5827 c3 -10 9 -15 12 -12 3 3 0 11 -7 18 -10 9 -11 8 -5 -6z"/>
<path d="M7993 5805 c0 -22 2 -30 4 -17 2 12 2 30 0 40 -3 9 -5 -1 -4 -23z"/>
<path d="M125 5820 c3 -5 8 -10 11 -10 2 0 4 5 4 10 0 6 -5 10 -11 10 -5 0 -7
-4 -4 -10z"/>
<path d="M739 5813 c-13 -15 -12 -15 9 -4 23 12 28 21 13 21 -5 0 -15 -7 -22
-17z"/>
<path d="M6780 5796 c0 -2 8 -10 18 -17 15 -13 16 -12 3 4 -13 16 -21 21 -21
13z"/>
<path d="M187 5779 c7 -7 15 -10 18 -7 3 3 -2 9 -12 12 -14 6 -15 5 -6 -5z"/>
<path d="M674 5775 c-10 -8 -14 -15 -8 -15 6 0 17 7 24 15 16 19 9 19 -16 0z"/>
<path d="M4016 5782 c-3 -5 -59 -41 -123 -80 -65 -38 -281 -167 -480 -286
l-363 -217 -1 -117 c-7 -678 -7 -792 4 -792 17 0 148 81 190 117 20 18 44 33
51 33 31 0 526 300 526 318 0 14 111 122 157 154 l43 29 2 422 c2 232 2 423 2
425 -1 2 -5 -1 -8 -6z m-138 -564 l-3 -313 -50 -33 c-27 -18 -93 -58 -145 -89
-52 -30 -182 -107 -288 -169 -106 -63 -197 -114 -202 -114 -13 0 -1 610 12
627 5 7 31 24 56 39 39 22 248 150 542 330 30 19 60 34 67 34 11 0 13 -62 11
-312z"/>
<path d="M3580 5334 c-146 -90 -286 -176 -312 -191 l-47 -26 -3 -288 c-2 -159
-1 -289 1 -289 2 0 34 19 70 42 36 23 145 88 241 143 96 56 208 122 247 146
l73 44 0 293 c0 160 -1 292 -2 291 -2 0 -122 -74 -268 -165z m13 -158 c35 -56
36 -114 1 -232 -33 -118 -36 -120 -109 -95 -33 12 -62 24 -67 29 -16 16 114
342 137 342 5 0 22 -20 38 -44z"/>
<path d="M240 5751 c0 -5 7 -12 16 -15 14 -5 15 -4 4 9 -14 17 -20 19 -20 6z"/>
<path d="M7990 5510 c0 -139 3 -251 6 -248 7 8 7 488 0 496 -3 3 -6 -109 -6
-248z"/>
<path d="M606 5734 c-11 -8 -16 -14 -10 -14 13 0 39 18 34 24 -3 2 -14 -2 -24
-10z"/>
<path d="M310 5710 c0 -5 5 -10 11 -10 5 0 7 5 4 10 -3 6 -8 10 -11 10 -2 0
-4 -4 -4 -10z"/>
<path d="M544 5694 c-18 -14 -18 -15 4 -4 12 6 22 13 22 15 0 8 -5 6 -26 -11z"/>
<path d="M378 5663 c7 -3 16 -2 19 1 4 3 -2 6 -13 5 -11 0 -14 -3 -6 -6z"/>
<path d="M459 5639 c-23 -19 -23 -20 -2 -10 12 6 25 16 28 21 10 16 -1 12 -26
-11z"/>
<path d="M415 5619 c-4 -6 -5 -12 -2 -15 2 -3 7 2 10 11 7 17 1 20 -8 4z"/>
<path d="M355 5580 c-3 -5 -1 -10 4 -10 6 0 11 5 11 10 0 6 -2 10 -4 10 -3 0
-8 -4 -11 -10z"/>
<path d="M590 5540 c8 -5 20 -10 25 -10 6 0 3 5 -5 10 -8 5 -19 10 -25 10 -5
0 -3 -5 5 -10z"/>
<path d="M280 5529 c0 -5 5 -7 10 -4 6 3 10 8 10 11 0 2 -4 4 -10 4 -5 0 -10
-5 -10 -11z"/>
<path d="M219 5493 c-13 -15 -12 -15 9 -4 23 12 28 21 13 21 -5 0 -15 -7 -22
-17z"/>
<path d="M650 5506 c0 -2 7 -7 16 -10 8 -3 12 -2 9 4 -6 10 -25 14 -25 6z"/>
<path d="M154 5454 c-18 -14 -18 -15 4 -4 12 6 22 13 22 15 0 8 -5 6 -26 -11z"/>
<path d="M9263 5458 c-13 -6 -23 -15 -23 -20 0 -5 11 -1 25 8 37 24 35 30 -2
12z"/>
<path d="M90 5420 c-8 -5 -12 -11 -10 -14 3 -2 14 2 24 10 22 15 10 19 -14 4z"/>
<path d="M795 5420 c3 -5 11 -10 16 -10 6 0 7 5 4 10 -3 6 -11 10 -16 10 -6 0
-7 -4 -4 -10z"/>
<path d="M9176 5405 c-11 -8 -15 -15 -9 -15 6 0 16 7 23 15 16 19 11 19 -14 0z"/>
<path d="M852 5384 c10 -10 20 -15 24 -12 3 4 -5 12 -18 18 -22 12 -22 12 -6
-6z"/>
<path d="M16 5375 c-11 -8 -15 -15 -10 -15 6 0 19 7 30 15 10 8 15 14 9 14 -5
0 -19 -6 -29 -14z"/>
<path d="M920 5346 c0 -2 7 -7 16 -10 8 -3 12 -2 9 4 -6 10 -25 14 -25 6z"/>
<path d="M9050 5330 c-8 -5 -10 -10 -5 -10 6 0 17 5 25 10 8 5 11 10 5 10 -5
0 -17 -5 -25 -10z"/>
<path d="M9000 5300 c-9 -6 -10 -10 -3 -10 6 0 15 5 18 10 8 12 4 12 -15 0z"/>
<path d="M1000 5296 c0 -2 7 -7 16 -10 8 -3 12 -2 9 4 -6 10 -25 14 -25 6z"/>
<path d="M8936 5265 c-11 -8 -15 -15 -9 -15 6 0 16 7 23 15 16 19 11 19 -14 0z"/>
<path d="M1075 5250 c3 -5 8 -10 11 -10 2 0 4 5 4 10 0 6 -5 10 -11 10 -5 0
-7 -4 -4 -10z"/>
<path d="M7992 5210 c0 -19 2 -27 5 -17 2 9 2 25 0 35 -3 9 -5 1 -5 -18z"/>
<path d="M8866 5225 c-11 -8 -15 -15 -9 -15 6 0 16 7 23 15 16 19 11 19 -14 0z"/>
<path d="M1125 5220 c3 -5 11 -10 16 -10 6 0 7 5 4 10 -3 6 -11 10 -16 10 -6
0 -7 -4 -4 -10z"/>
<path d="M5692 5200 c0 -14 2 -19 5 -12 2 6 2 18 0 25 -3 6 -5 1 -5 -13z"/>
<path d="M8785 5180 c-16 -11 -25 -20 -20 -20 6 0 24 9 40 20 17 11 26 20 20
20 -5 0 -23 -9 -40 -20z"/>
<path d="M1187 5179 c7 -7 15 -10 18 -7 3 3 -2 9 -12 12 -14 6 -15 5 -6 -5z"/>
<path d="M915 5170 c-18 -29 58 -62 83 -36 13 12 13 18 2 30 -14 18 -75 22
-85 6z"/>
<path d="M7993 5130 c0 -25 2 -35 4 -22 2 12 2 32 0 45 -2 12 -4 2 -4 -23z"/>
<path d="M8720 5140 c-9 -6 -10 -10 -3 -10 6 0 15 5 18 10 8 12 4 12 -15 0z"/>
<path d="M5987 5109 c7 -7 15 -10 18 -7 3 3 -2 9 -12 12 -14 6 -15 5 -6 -5z"/>
<path d="M1330 5095 c7 -9 15 -13 17 -11 7 7 -7 26 -19 26 -6 0 -6 -6 2 -15z"/>
<path d="M6932 4609 l3 -460 25 -15 c232 -133 305 -172 311 -162 4 6 5 196 3
422 -2 226 -4 427 -4 447 0 31 -5 38 -42 60 -55 32 -75 44 -190 112 -53 31
-99 57 -102 57 -3 0 -5 -207 -4 -461z m95 213 c17 -13 23 -29 24 -70 3 -52 21
-68 27 -24 3 21 5 21 45 -11 23 -19 49 -36 58 -40 14 -5 33 -65 24 -75 -5 -5
-42 16 -60 35 -10 9 -27 17 -39 18 -13 1 -20 8 -20 19 2 17 -12 22 -18 6 -2
-6 -20 1 -41 16 -37 24 -38 27 -33 75 3 27 1 49 -5 49 -5 0 -9 5 -9 10 0 15
22 12 47 -8z m-43 -238 c3 -9 6 -25 6 -37 l0 -21 -20 20 c-13 12 -18 27 -14
37 8 21 20 22 28 1z m48 -16 c0 -7 2 -17 2 -23 1 -5 5 -16 10 -23 12 -19 1
-25 -23 -12 -22 11 -26 26 -15 54 7 19 23 21 26 4z m86 -74 c18 -8 35 -21 39
-27 5 -7 17 -12 27 -12 22 0 29 -14 18 -33 -14 -21 -132 50 -132 80 0 12 13
10 48 -8z m-37 -157 c34 -9 117 -69 101 -75 -7 -2 -19 2 -27 8 -10 8 -15 9
-15 2 0 -6 5 -14 10 -17 6 -3 10 -37 10 -76 0 -55 -3 -69 -15 -69 -8 0 -15 4
-15 8 0 4 -15 13 -34 20 -55 20 -69 44 -73 124 -4 82 1 105 20 91 6 -6 24 -13
38 -16z"/>
<path d="M7009 4795 c0 -6 -2 -18 -4 -27 -5 -26 12 -32 20 -7 4 11 2 26 -4 32
-6 6 -11 7 -12 2z"/>
<path d="M7100 4695 c0 -8 7 -15 15 -15 8 0 15 4 15 9 0 5 -7 11 -15 15 -9 3
-15 0 -15 -9z"/>
<path d="M7100 4295 c7 -9 15 -13 17 -11 7 7 -7 26 -19 26 -6 0 -6 -6 2 -15z"/>
<path d="M1410 5050 c0 -5 5 -10 11 -10 5 0 7 5 4 10 -3 6 -8 10 -11 10 -2 0
-4 -4 -4 -10z"/>
<path d="M7991 4669 c1 -211 3 -376 6 -366 2 9 9 17 14 17 5 0 9 5 9 11 0 5
-4 7 -10 4 -6 -4 -10 15 -10 49 0 38 4 56 13 56 13 0 17 104 3 117 -4 4 -4 0
0 -10 3 -9 1 -17 -4 -17 -7 0 -11 84 -11 257 -1 141 -3 259 -6 261 -3 3 -4
-168 -4 -379z m16 -196 c-3 -10 -5 -4 -5 12 0 17 2 24 5 18 2 -7 2 -21 0 -30z"/>
<path d="M8540 5030 c-9 -6 -10 -10 -3 -10 6 0 15 5 18 10 8 12 4 12 -15 0z"/>
<path d="M1475 5010 c3 -5 8 -10 11 -10 2 0 4 5 4 10 0 6 -5 10 -11 10 -5 0
-7 -4 -4 -10z"/>
<path d="M915 4978 c-20 -90 -34 -920 -32 -1908 2 -906 2 -930 -17 -930 -30 0
-151 -39 -215 -69 -121 -57 -168 -112 -178 -208 -15 -134 91 -241 281 -284
100 -23 261 -36 269 -22 8 13 10 3190 2 3203 -4 6 -23 7 -44 4 -26 -4 -41 -2
-46 7 -5 7 -8 61 -8 121 1 108 -2 128 -12 86z m-36 -2920 c-1 -40 -4 -62 -6
-48 -2 14 -7 32 -10 40 -3 8 -7 22 -7 30 -1 14 -6 15 -50 2 -19 -5 -19 -4 1
17 12 13 25 21 30 18 5 -3 15 -2 23 4 8 5 16 9 18 9 1 0 1 -33 1 -72z m-99 32
c0 -5 -2 -10 -4 -10 -3 0 -8 5 -11 10 -3 6 -1 10 4 10 6 0 11 -4 11 -10z m-33
-6 c-3 -3 -12 -4 -19 -1 -8 3 -5 6 6 6 11 1 17 -2 13 -5z m-171 -102 c-17 -16
-18 -16 -5 5 7 12 15 20 18 17 3 -2 -3 -12 -13 -22z m301 -89 c-2 -16 -4 -5
-4 22 0 28 2 40 4 28 2 -13 2 -35 0 -50z m-370 -45 c-3 -7 -5 -2 -5 12 0 14 2
19 5 13 2 -7 2 -19 0 -25z m375 -199 c-3 -64 -4 -66 -29 -61 -17 3 -21 7 -12
13 7 4 17 5 21 3 4 -3 9 37 9 88 1 58 4 80 8 58 3 -19 5 -64 3 -101z m-152
-29 c8 -5 11 -10 5 -10 -5 0 -17 5 -25 10 -8 5 -10 10 -5 10 6 0 17 -5 25 -10z"/>
<path d="M8475 4990 c-3 -6 1 -7 9 -4 18 7 21 14 7 14 -6 0 -13 -4 -16 -10z"/>
<path d="M1520 4980 c20 -13 33 -13 25 0 -3 6 -14 10 -23 10 -15 0 -15 -2 -2
-10z"/>
<path d="M5745 4920 c-3 -5 -1 -10 4 -10 6 0 11 5 11 10 0 6 -2 10 -4 10 -3 0
-8 -4 -11 -10z"/>
<path d="M5700 4891 c0 -20 17 -37 27 -28 7 8 -7 47 -18 47 -5 0 -9 -9 -9 -19z"/>
<path d="M5818 4875 c-11 -11 6 -66 23 -76 24 -12 27 12 4 31 -9 7 -14 19 -11
26 5 13 -7 28 -16 19z"/>
<path d="M5772 4849 c1 -12 9 -24 16 -27 9 -3 13 3 10 19 -1 12 -9 24 -16 27
-9 3 -13 -3 -10 -19z"/>
<path d="M8587 4779 c7 -7 15 -10 18 -7 3 3 -2 9 -12 12 -14 6 -15 5 -6 -5z"/>
<path d="M0 4776 c0 -2 7 -7 16 -10 8 -3 12 -2 9 4 -6 10 -25 14 -25 6z"/>
<path d="M7372 4743 c2 -10 12 -18 23 -18 11 0 30 -6 43 -13 36 -21 25 -7 -18
22 -47 31 -53 32 -48 9z"/>
<path d="M55 4740 c3 -5 11 -10 16 -10 6 0 7 5 4 10 -3 6 -11 10 -16 10 -6 0
-7 -4 -4 -10z"/>
<path d="M8645 4740 c3 -5 11 -10 16 -10 6 0 7 5 4 10 -3 6 -11 10 -16 10 -6
0 -7 -4 -4 -10z"/>
<path d="M5505 4680 c-16 -16 -26 -32 -24 -34 3 -3 17 10 32 29 34 43 30 45
-8 5z"/>
<path d="M7478 4693 c19 -7 14 -23 -5 -17 -15 5 -15 3 2 -11 12 -10 21 -12 23
-5 6 17 -6 40 -20 39 -10 0 -10 -2 0 -6z"/>
<path d="M9099 4578 c-112 -66 -350 -206 -529 -311 -302 -176 -388 -230 -335
-211 11 4 31 15 45 24 14 9 50 31 80 47 169 94 838 487 905 533 22 15 47 30
55 33 13 5 13 6 -1 6 -8 1 -107 -54 -220 -121z"/>
<path d="M9324 4672 c-6 -4 -17 -18 -23 -30 -7 -13 -15 -21 -18 -18 -3 3 -31
-11 -62 -31 -61 -39 -229 -140 -301 -181 -25 -14 -81 -48 -125 -75 -112 -70
-257 -157 -262 -157 -2 0 -30 -17 -61 -38 -31 -21 -106 -67 -167 -101 -60 -35
-121 -73 -135 -85 -14 -13 -46 -33 -72 -45 -27 -13 -48 -27 -48 -32 0 -5 -6
-9 -14 -9 -18 0 -136 -79 -136 -91 0 -8 127 65 220 126 101 66 180 115 185
115 3 0 36 20 73 43 60 39 346 210 542 324 41 24 82 48 90 53 8 5 60 35 115
66 55 32 111 66 124 76 53 41 51 59 51 -499 0 -285 -4 -523 -8 -528 -11 -16
-70 -53 -327 -206 -132 -78 -406 -242 -610 -364 -203 -122 -437 -262 -520
-310 -82 -48 -211 -125 -285 -170 -74 -45 -171 -103 -215 -130 -44 -27 -127
-77 -184 -112 -57 -35 -108 -63 -113 -63 -10 0 -11 1010 0 1026 12 18 249 175
360 239 23 13 347 213 412 254 14 9 39 22 55 30 17 7 25 15 18 18 -13 5 -101
-40 -193 -99 -91 -58 -228 -145 -340 -214 -52 -32 -98 -63 -102 -69 -5 -6 -8
-5 -8 3 0 10 -3 10 -15 -1 -8 -8 -31 -25 -52 -37 -110 -66 -161 -103 -171
-126 -9 -18 -12 -180 -12 -569 l0 -545 25 12 c14 6 25 15 25 20 0 4 6 8 13 8
16 0 57 42 57 58 0 16 17 16 22 0 3 -8 13 -6 31 8 14 10 25 24 22 31 -2 7 0
15 5 18 6 4 10 1 10 -4 0 -6 5 -11 10 -11 6 0 10 8 10 18 0 14 2 15 10 2 5 -8
10 -12 12 -10 2 3 8 14 14 25 6 11 18 20 27 20 8 0 24 11 36 25 11 14 20 20
21 13 0 -14 30 -6 30 9 0 5 -4 6 -10 3 -5 -3 -10 -4 -10 -1 0 3 10 10 21 17
17 9 20 8 14 -2 -5 -8 -4 -10 3 -5 7 4 12 14 12 23 0 13 3 13 15 3 13 -11 14
-10 9 4 -7 19 6 21 25 4 11 -11 13 -10 8 4 -3 9 1 22 10 30 13 10 17 10 20 0
3 -6 9 -10 13 -7 5 3 6 13 3 23 -6 15 -5 15 10 3 15 -11 17 -11 17 2 0 8 6 20
14 26 11 10 15 8 19 -6 3 -14 7 -11 16 14 13 33 58 54 71 33 5 -9 9 -9 14 -1
4 6 2 11 -3 11 -19 0 -12 18 10 25 14 5 25 2 30 -6 6 -10 9 -8 9 8 0 28 38 52
51 32 7 -11 10 -9 15 7 6 24 59 58 74 49 6 -4 9 -1 8 7 -2 8 6 13 20 13 13 0
30 8 37 18 7 10 21 20 30 21 9 1 20 7 23 12 4 5 21 16 37 24 17 8 32 18 35 21
3 4 25 17 50 29 25 12 57 36 73 53 15 17 27 26 27 21 0 -6 -5 -15 -12 -22 -8
-8 -9 -12 -1 -12 6 0 18 6 25 13 7 7 21 16 31 20 9 3 17 14 17 23 0 8 6 14 13
11 18 -6 47 11 47 30 0 11 6 14 21 10 13 -3 28 2 40 14 10 10 22 18 27 17 17
-3 44 17 53 41 7 18 12 22 18 12 6 -9 10 -7 14 8 3 12 11 21 19 21 11 0 11 -2
-1 -9 -9 -6 -10 -11 -2 -15 6 -4 16 4 22 21 6 15 13 22 16 16 6 -16 53 13 53
32 0 7 7 15 14 18 10 4 13 1 9 -9 -3 -7 -2 -14 1 -14 4 0 11 11 16 25 10 25
30 35 30 13 0 -6 9 -3 20 7 11 10 20 24 20 32 0 7 5 13 11 13 6 0 8 -7 5 -16
-3 -8 -2 -12 4 -9 6 3 10 13 10 20 0 8 6 12 14 9 19 -7 56 13 56 30 0 18 48
49 65 43 7 -3 18 5 25 19 14 26 36 34 27 10 -4 -10 -1 -13 8 -9 8 3 12 9 9 14
-3 5 5 19 17 31 16 17 20 19 16 6 -3 -10 -2 -20 3 -23 10 -6 24 13 25 34 0 8
6 16 14 19 10 3 12 0 8 -12 -8 -21 -8 -21 66 24 31 19 57 40 57 47 0 6 5 15
12 19 7 4 8 3 4 -4 -15 -25 22 -10 96 37 52 33 79 58 82 73 9 43 13 1109 4
1114 -4 3 -6 10 -3 15 7 11 4 11 -11 1z m-268 -1309 c-10 -10 -19 5 -10 18 6
11 8 11 12 0 2 -7 1 -15 -2 -18z m-291 -163 c3 -5 1 -10 -4 -10 -6 0 -11 5
-11 10 0 6 2 10 4 10 3 0 8 -4 11 -10z m-353 -222 c-7 -7 -12 -8 -12 -2 0 14
12 26 19 19 2 -3 -1 -11 -7 -17z m-1356 -805 c-10 -10 -19 5 -10 18 6 11 8 11
12 0 2 -7 1 -15 -2 -18z"/>
<path d="M190 4660 c8 -5 20 -10 25 -10 6 0 3 5 -5 10 -8 5 -19 10 -25 10 -5
0 -3 -5 5 -10z"/>
<path d="M5562 4640 c0 -19 2 -27 5 -17 2 9 2 25 0 35 -3 9 -5 1 -5 -18z"/>
<path d="M5449 4623 c-13 -16 -12 -17 4 -4 9 7 17 15 17 17 0 8 -8 3 -21 -13z"/>
<path d="M257 4619 c7 -7 15 -10 18 -7 3 3 -2 9 -12 12 -14 6 -15 5 -6 -5z"/>
<path d="M2121 4604 c0 -11 3 -14 6 -6 3 7 2 16 -1 19 -3 4 -6 -2 -5 -13z"/>
<path d="M325 4580 c3 -5 8 -10 11 -10 2 0 4 5 4 10 0 6 -5 10 -11 10 -5 0 -7
-4 -4 -10z"/>
<path d="M815 4580 c-3 -5 -2 -10 4 -10 5 0 13 5 16 10 3 6 2 10 -4 10 -5 0
-13 -4 -16 -10z"/>
<path d="M6757 4544 c23 -17 33 -17 33 0 0 8 -10 14 -25 14 -23 0 -24 -2 -8
-14z"/>
<path d="M380 4546 c0 -2 7 -7 16 -10 8 -3 12 -2 9 4 -6 10 -25 14 -25 6z"/>
<path d="M749 4533 c-13 -15 -12 -15 9 -4 23 12 28 21 13 21 -5 0 -15 -7 -22
-17z"/>
<path d="M2120 4505 c0 -19 4 -35 8 -35 4 0 6 16 4 35 -2 19 -6 35 -8 35 -2 0
-4 -16 -4 -35z"/>
<path d="M440 4516 c0 -3 9 -10 20 -16 11 -6 20 -8 20 -6 0 3 -9 10 -20 16
-11 6 -20 8 -20 6z"/>
<path d="M5725 4458 c-44 -33 -80 -65 -80 -71 0 -14 117 -86 152 -93 27 -5 31
-3 42 27 15 43 14 172 -1 187 -19 19 -27 15 -113 -50z"/>
<path d="M4646 4483 c-6 -14 -5 -15 5 -6 7 7 10 15 7 18 -3 3 -9 -2 -12 -12z"/>
<path d="M629 4459 c-23 -19 -23 -20 -2 -10 12 6 25 16 28 21 10 16 -1 12 -26
-11z"/>
<path d="M9700 4476 c0 -2 8 -10 18 -17 15 -13 16 -12 3 4 -13 16 -21 21 -21
13z"/>
<path d="M565 4429 c-11 -17 -2 -18 19 -3 17 12 17 14 4 14 -9 0 -20 -5 -23
-11z"/>
<path d="M1833 4411 c4 -20 3 -30 -3 -26 -6 3 -10 1 -10 -5 0 -7 6 -10 13 -8
14 5 17 57 3 65 -5 4 -7 -7 -3 -26z"/>
<path d="M3288 4414 c-23 -7 -40 -67 -36 -124 4 -58 42 -86 133 -95 36 -4 66
-13 69 -20 2 -7 4 -78 3 -159 -2 -118 -5 -149 -17 -157 -9 -6 -54 -8 -105 -6
-105 4 -189 36 -225 85 -15 20 -28 28 -41 25 -23 -6 -24 -26 -3 -63 21 -35 59
-57 112 -66 25 -4 42 -12 42 -20 0 -22 43 -44 97 -50 66 -8 190 20 246 56 33
21 53 44 77 92 54 105 63 137 46 163 -14 21 -23 64 -43 190 -7 45 -13 53 -56
82 -26 17 -73 39 -105 49 -58 17 -162 27 -194 18z"/>
<path d="M8010 4399 c0 -5 5 -7 10 -4 6 3 10 8 10 11 0 2 -4 4 -10 4 -5 0 -10
-5 -10 -11z"/>
<path d="M504 4385 c-10 -8 -14 -15 -8 -15 6 0 17 7 24 15 16 19 9 19 -16 0z"/>
<path d="M657 4389 c7 -7 15 -10 18 -7 3 3 -2 9 -12 12 -14 6 -15 5 -6 -5z"/>
<path d="M6672 4385 c4 -5 3 -14 -4 -22 -8 -10 -8 -17 0 -25 9 -9 12 -8 12 3
0 12 2 12 10 -1 8 -11 10 -8 7 14 -2 17 -10 32 -18 34 -8 3 -11 1 -7 -3z"/>
<path d="M3691 4354 c0 -11 3 -14 6 -6 3 7 2 16 -1 19 -3 4 -6 -2 -5 -13z"/>
<path d="M430 4340 c-13 -8 -13 -10 2 -10 9 0 20 5 23 10 8 13 -5 13 -25 0z"/>
<path d="M9915 4340 c3 -5 8 -10 11 -10 2 0 4 5 4 10 0 6 -5 10 -11 10 -5 0
-7 -4 -4 -10z"/>
<path d="M6720 4328 c0 -18 18 -34 28 -24 3 4 -2 14 -11 23 -16 16 -17 16 -17
1z"/>
<path d="M9143 4318 c-12 -6 -24 -20 -27 -32 -3 -11 -6 -126 -6 -254 l0 -234
-35 -31 c-28 -25 -35 -38 -35 -69 0 -48 19 -50 63 -5 63 64 64 67 72 365 4
149 3 272 -2 271 -4 0 -18 -5 -30 -11z"/>
<path d="M376 4305 c-11 -8 -15 -15 -9 -15 6 0 16 7 23 15 16 19 11 19 -14 0z"/>
<path d="M1830 4305 c7 -9 15 -13 17 -11 7 7 -7 26 -19 26 -6 0 -6 -6 2 -15z"/>
<path d="M9987 4299 c7 -7 15 -10 18 -7 3 3 -2 9 -12 12 -14 6 -15 5 -6 -5z"/>
<path d="M3180 4274 c0 -17 7 -37 15 -44 18 -15 18 -15 0 35 -14 40 -14 40
-15 9z"/>
<path d="M4484 4278 l-19 -23 23 19 c21 18 27 26 19 26 -2 0 -12 -10 -23 -22z"/>
<path d="M7991 4240 c-1 -43 -1 -44 15 -22 9 13 13 26 10 29 -3 4 -7 0 -7 -8
-1 -8 -5 0 -9 16 -7 28 -8 26 -9 -15z"/>
<path d="M305 4260 c-3 -5 -2 -10 4 -10 5 0 13 5 16 10 3 6 2 10 -4 10 -5 0
-13 -4 -16 -10z"/>
<path d="M1934 4258 c10 -6 22 -6 26 -2 5 5 -3 10 -18 11 -22 1 -24 0 -8 -9z"/>
<path d="M4588 4222 c-31 -26 -73 -58 -92 -72 -20 -14 -42 -37 -50 -52 -12
-24 -12 -27 6 -31 16 -5 19 -11 14 -39 -3 -18 -3 -27 0 -20 5 10 10 9 25 -4
18 -17 19 -16 19 23 0 39 2 41 38 47 25 5 46 18 66 42 29 35 30 58 1 34 -13
-11 -15 -7 -15 28 0 31 4 42 19 47 17 5 36 33 28 41 -1 2 -28 -18 -59 -44z
m-35 -107 c-15 -12 -18 -11 -21 1 -2 8 2 22 9 30 11 14 14 13 22 -1 6 -12 4
-20 -10 -30z"/>
<path d="M7740 4255 c0 -3 21 -27 48 -54 26 -26 52 -58 59 -72 35 -74 53 -116
53 -125 0 -6 11 -21 24 -33 l25 -23 33 25 c18 13 39 22 46 20 8 -3 12 9 12 42
0 38 -3 46 -15 41 -13 -5 -14 -2 -5 15 14 26 9 75 -7 72 -7 -2 -13 5 -14 15
-1 11 -4 8 -8 -8 -4 -13 -4 -47 0 -75 7 -55 0 -83 -26 -105 -15 -12 -19 -12
-31 5 -8 10 -14 25 -14 33 0 20 -50 110 -82 145 -15 17 -25 33 -23 36 3 2 -4
9 -14 15 -10 6 -28 17 -40 24 -11 7 -21 10 -21 7z m275 -125 c3 -5 1 -10 -4
-10 -6 0 -11 5 -11 10 0 6 2 10 4 10 3 0 8 -4 11 -10z"/>
<path d="M10065 4250 c3 -5 8 -10 11 -10 2 0 4 5 4 10 0 6 -5 10 -11 10 -5 0
-7 -4 -4 -10z"/>
<path d="M240 4220 c-9 -6 -10 -10 -3 -10 6 0 15 5 18 10 8 12 4 12 -15 0z"/>
<path d="M9042 4204 c-21 -15 -22 -20 -22 -209 0 -126 4 -196 11 -200 5 -4 19
1 30 11 18 16 19 32 19 216 0 109 -3 198 -8 198 -4 0 -18 -7 -30 -16z"/>
<path d="M10120 4216 c0 -2 7 -7 16 -10 8 -3 12 -2 9 4 -6 10 -25 14 -25 6z"/>
<path d="M175 4180 c-3 -6 1 -7 9 -4 18 7 21 14 7 14 -6 0 -13 -4 -16 -10z"/>
<path d="M10180 4186 c0 -3 9 -10 20 -16 11 -6 20 -8 20 -6 0 3 -9 10 -20 16
-11 6 -20 8 -20 6z"/>
<path d="M8868 4159 c-12 -6 -19 -29 -24 -69 -7 -61 -24 -84 -24 -32 0 15 -9
35 -20 45 -11 9 -21 15 -21 12 -3 -12 -6 -21 -11 -35 -8 -21 -38 -163 -38
-177 0 -6 9 -9 23 -6 18 5 17 1 -12 -24 -27 -23 -32 -33 -26 -52 6 -18 12 -22
33 -16 14 3 37 15 50 26 32 24 52 24 52 -1 0 -23 -44 -55 -65 -46 -8 3 -15 2
-15 -3 0 -5 -9 -11 -20 -14 -19 -5 -20 -14 -20 -131 0 -132 4 -141 43 -112 14
11 17 29 17 102 0 77 3 91 19 101 10 7 22 9 25 6 3 -4 6 -53 6 -110 0 -58 4
-103 9 -103 18 0 41 44 41 76 0 18 3 40 7 50 5 14 9 9 18 -21 l10 -39 21 35
c32 54 43 96 46 179 3 70 2 75 -17 72 -11 -2 -29 -12 -41 -23 -27 -25 -34 -24
-34 5 0 17 12 31 45 52 36 22 45 34 45 56 0 33 0 33 -49 8 -36 -18 -40 -18
-45 -3 -5 12 6 28 35 52 32 28 40 42 37 61 -4 26 -7 27 -45 15 -21 -6 -23 -3
-23 34 0 43 -4 47 -32 30z m-25 -191 c8 -21 -10 -56 -33 -63 -12 -4 -24 -5
-27 -2 -7 8 6 45 23 62 19 18 30 19 37 3z m37 -112 c0 -3 -4 -8 -10 -11 -5 -3
-10 -1 -10 4 0 6 5 11 10 11 6 0 10 -2 10 -4z m50 -123 c-4 -42 -9 -58 -20
-58 -11 0 -14 11 -11 50 2 43 13 64 31 65 3 0 3 -26 0 -57z"/>
<path d="M114 4145 c-10 -8 -14 -15 -8 -15 6 0 17 7 24 15 16 19 9 19 -16 0z"/>
<path d="M46 4105 c-11 -8 -15 -15 -10 -15 6 0 19 7 30 15 10 8 15 14 9 14 -5
0 -19 -6 -29 -14z"/>
<path d="M3928 4073 c7 -3 16 -2 19 1 4 3 -2 6 -13 5 -11 0 -14 -3 -6 -6z"/>
<path d="M4335 4018 c-59 -39 -181 -90 -233 -97 -70 -10 -222 11 -265 37 l-34
20 5 -47 c9 -86 116 -292 143 -275 5 3 17 1 27 -5 11 -6 33 -6 58 -1 21 5 69
11 106 14 51 3 75 10 100 29 18 14 42 27 53 29 10 1 34 23 52 46 33 43 33 44
33 158 0 63 -3 114 -7 113 -5 0 -21 -10 -38 -21z"/>
<path d="M5451 3959 c-1 -24 25 -59 44 -59 4 0 85 -46 179 -103 94 -57 200
-121 236 -142 36 -21 114 -67 174 -102 60 -35 111 -62 113 -59 9 8 -8 26 -24
26 -16 0 -535 307 -646 382 -32 22 -62 49 -67 61 -8 21 -9 21 -9 -4z"/>
<path d="M4835 3950 c-3 -5 -4 -14 -1 -19 4 -5 -2 -7 -13 -4 -17 4 -101 -41
-109 -59 -2 -5 -8 -8 -14 -8 -8 0 -59 -34 -92 -61 -4 -4 11 -20 35 -35 26 -16
38 -29 31 -32 -8 -2 -23 5 -35 15 -36 32 -55 34 -98 10 -21 -12 -39 -25 -39
-29 0 -4 36 -29 80 -55 43 -26 79 -51 80 -55 0 -10 -37 -10 -42 0 -8 18 -140
92 -152 85 -7 -5 -32 -24 -55 -44 l-41 -36 39 -28 c22 -15 45 -24 50 -20 6 3
24 -3 40 -14 16 -12 36 -21 44 -21 9 0 22 -6 29 -13 28 -27 63 -47 85 -47 13
0 23 -6 23 -13 0 -20 218 -158 600 -380 113 -65 217 -128 232 -139 24 -17 28
-17 28 -3 0 9 10 35 22 58 12 23 22 51 22 62 1 16 9 21 39 23 40 3 58 25 38
45 -21 21 -11 29 14 13 24 -16 27 -16 52 4 14 11 32 20 39 20 8 0 14 6 14 14
0 7 22 25 50 39 41 21 60 25 107 22 61 -5 69 -9 75 -40 2 -14 11 -20 28 -20
14 0 29 -8 35 -20 17 -33 49 -66 72 -76 13 -4 54 -29 93 -55 l71 -46 41 27
c34 22 38 29 27 40 -31 30 -301 185 -311 179 -7 -4 -8 -2 -4 4 4 7 -7 18 -26
28 -18 9 -100 57 -183 106 -184 109 -180 107 -232 141 -23 15 -43 27 -45 27
-2 0 -78 45 -169 100 -284 172 -418 250 -429 250 -5 0 -10 5 -10 11 0 6 -7 8
-16 5 -8 -3 -12 -2 -9 4 6 10 -65 50 -89 50 -8 0 -18 -4 -21 -10z m-70 -109
c17 -11 41 -29 55 -40 40 -33 0 -26 -48 8 -63 46 -69 72 -7 32z m205 -6 c19
-23 1 -39 -21 -19 -10 9 -16 21 -13 25 8 13 20 11 34 -6z m75 -47 c14 -6 25
-15 25 -20 0 -13 -10 -10 -37 12 -29 23 -25 25 12 8z m-136 -42 c9 -11 9 -16
0 -22 -12 -7 -49 29 -49 47 0 12 32 -4 49 -25z m251 -41 c0 -11 -8 -9 -34 8
-18 12 -32 25 -29 29 7 12 63 -21 63 -37z m-401 -26 c2 -8 -10 -5 -29 7 -18
10 -36 26 -38 34 -4 10 5 7 29 -8 18 -11 35 -26 38 -33z m237 16 c4 -8 15 -15
25 -15 10 0 19 -4 19 -8 0 -12 -59 -7 -72 6 -11 11 -3 32 13 32 5 0 12 -7 15
-15z m252 -30 c15 -14 21 -25 13 -25 -17 0 -62 36 -54 44 9 9 12 8 41 -19z
m-433 -23 c-6 -7 -35 18 -35 31 0 5 9 2 20 -8 11 -10 18 -20 15 -23z m285 -7
c7 -9 10 -18 7 -21 -10 -10 -47 7 -47 22 0 19 24 18 40 -1z m-227 -11 c53 -28
79 -51 63 -57 -8 -3 -24 5 -37 19 -12 13 -28 24 -35 24 -6 0 -17 7 -24 15 -16
19 -7 19 33 -1z m471 -25 c40 -24 41 -25 22 -32 -7 -3 -25 8 -39 24 -30 35
-29 35 17 8z m-525 -75 c30 -20 60 -36 65 -37 6 -1 22 -12 36 -24 13 -13 38
-29 55 -37 17 -8 47 -26 68 -40 21 -14 41 -26 44 -26 3 0 20 -11 37 -23 17
-13 36 -26 41 -28 6 -2 55 -33 110 -69 55 -36 104 -64 109 -62 5 2 12 -1 15
-6 7 -11 135 -98 154 -105 6 -2 9 -8 5 -12 -8 -8 -19 -4 -63 25 -16 11 -37 23
-45 27 -8 3 -28 17 -43 30 -16 13 -33 23 -40 23 -6 0 -36 17 -66 37 -31 20
-72 47 -91 59 -230 142 -294 183 -350 222 -60 42 -66 43 -100 33 -35 -10 -35
-10 -12 7 l24 18 -42 28 c-22 15 -38 31 -35 37 4 5 20 -1 38 -16 18 -14 57
-42 86 -61z m364 55 c12 -6 29 -19 35 -30 12 -19 12 -19 -28 1 -22 11 -40 25
-40 30 0 13 4 12 33 -1z m-176 -29 c14 -21 1 -37 -14 -17 -21 26 -24 37 -11
37 7 0 19 -9 25 -20z m448 -10 c3 -5 2 -10 -4 -10 -5 0 -13 5 -16 10 -3 6 -2
10 4 10 5 0 13 -4 16 -10z m-170 -16 c23 -15 35 -44 18 -44 -10 0 -53 42 -53
52 0 12 8 10 35 -8z m-220 -13 c10 -17 -12 -21 -25 -6 -10 12 -10 15 3 15 9 0
18 -4 22 -9z m434 -4 c6 -8 8 -17 4 -20 -7 -8 -33 11 -33 24 0 13 16 11 29 -4z
m-382 -28 c17 -17 5 -43 -13 -28 -15 12 -19 39 -6 39 4 0 13 -5 19 -11z m264
-9 c21 -12 26 -40 6 -40 -17 0 -37 20 -37 37 0 16 5 16 31 3z m196 -10 c23
-18 23 -20 6 -20 -19 0 -43 17 -43 32 0 13 10 9 37 -12z m-409 -18 c2 -7 -2
-10 -12 -6 -9 3 -16 11 -16 16 0 13 23 5 28 -10z m54 -19 c22 -20 23 -33 3
-33 -12 0 -35 28 -35 44 0 11 13 6 32 -11z m258 -18 c10 -13 11 -18 1 -28 -10
-9 -15 -8 -26 7 -23 31 1 50 25 21z m190 0 c20 -24 5 -28 -21 -6 -19 16 -20
20 -8 21 9 0 22 -7 29 -15z m-330 -67 c0 -5 -7 -8 -15 -8 -16 0 -65 45 -65 60
0 11 79 -41 80 -52z m229 11 c26 -16 31 -23 21 -29 -17 -11 -50 6 -50 25 0 7
-8 16 -17 18 -13 3 -14 5 -3 6 8 0 30 -8 49 -20z m200 5 c16 -12 20 -19 12
-27 -8 -8 -19 -4 -38 16 -31 31 -13 38 26 11z m-349 -66 c0 -18 -39 -6 -54 17
-23 36 -20 38 19 13 19 -13 35 -26 35 -30z m250 5 c25 -22 26 -33 1 -33 -22 0
-45 25 -36 40 8 13 11 13 35 -7z m-150 -75 c0 -14 -59 21 -70 41 -17 33 -11
33 30 0 22 -18 40 -36 40 -41z m233 14 c10 -10 14 -22 10 -25 -13 -13 -28 -6
-40 18 -14 31 5 35 30 7z m-146 -64 c-15 -9 -51 14 -55 36 -3 15 2 14 31 -6
23 -15 31 -25 24 -30z"/>
<path d="M8594 3928 c-85 -68 -114 -79 -114 -43 0 20 -19 28 -35 15 -8 -6 -18
-9 -23 -6 -15 9 -35 -40 -28 -68 5 -19 2 -26 -8 -26 -7 0 -19 -6 -25 -14 -6
-7 -24 -16 -39 -19 -15 -4 -44 -21 -65 -39 -37 -31 -39 -37 -44 -102 -4 -61
-3 -68 11 -63 10 4 16 2 15 -6 -3 -27 2 -47 11 -47 6 0 36 16 66 35 30 19 58
35 62 35 4 0 7 -35 6 -78 -2 -113 -3 -119 -19 -126 -25 -9 -45 22 -45 70 0 36
-3 44 -19 44 -27 0 -36 -17 -51 -90 -7 -36 -26 -100 -42 -142 -16 -43 -27 -82
-23 -88 19 -31 62 16 86 97 9 31 15 40 24 33 6 -5 27 -11 47 -14 37 -4 112 28
159 67 11 10 28 22 37 25 56 24 81 49 91 87 5 21 8 41 6 43 -2 2 -35 -16 -73
-42 -101 -67 -104 -67 -100 -15 3 39 7 46 37 61 53 26 91 68 91 100 0 15 -5
28 -11 28 -5 0 -34 -18 -62 -40 l-52 -39 -3 32 c-3 23 2 36 17 47 87 64 114
89 131 116 23 36 27 69 8 58 -7 -4 -6 1 4 12 19 22 28 116 11 121 -6 2 -23 -6
-39 -19z m-19 -118 c4 -6 12 -8 18 -5 26 13 -64 -59 -112 -89 -170 -106 -204
-127 -207 -124 -2 2 3 22 10 43 10 30 22 43 44 50 17 6 39 18 49 26 10 9 45
31 77 48 32 18 68 39 80 46 24 18 33 19 41 5z"/>
<path d="M6953 3895 c-10 -10 -9 -14 2 -18 7 -3 16 1 19 8 7 20 -6 26 -21 10z"/>
<path d="M7845 3825 c-118 -74 -143 -87 -129 -62 5 8 3 8 -9 -2 -9 -7 -15 -17
-12 -21 3 -5 1 -11 -5 -15 -5 -3 -10 -1 -10 6 0 7 -3 10 -6 6 -3 -3 -3 -11 1
-17 4 -7 17 -4 40 10 19 12 48 28 66 37 25 13 172 113 188 129 15 14 -19 -5
-124 -71z"/>
<path d="M6917 3853 c5 -12 2 -15 -9 -10 -9 3 -25 -3 -36 -13 -11 -10 -23 -16
-26 -13 -3 4 -6 1 -6 -5 0 -6 -8 -9 -17 -6 -13 4 -14 3 -5 -3 9 -7 -1 -16 -35
-33 -27 -13 -55 -25 -63 -27 -7 -1 -22 -12 -31 -24 -10 -14 -21 -19 -29 -14
-9 5 -11 4 -6 -3 4 -7 -7 -19 -31 -29 -21 -10 -41 -22 -44 -26 -3 -4 -12 -7
-20 -5 -8 2 -13 -3 -11 -10 1 -7 -3 -12 -10 -10 -17 3 -208 -104 -202 -114 7
-12 -69 -29 -80 -18 -12 12 -46 13 -46 1 0 -10 35 -21 70 -21 21 0 135 65 176
99 7 5 14 8 15 6 7 -6 462 270 467 283 2 6 -3 12 -12 12 -10 0 -13 -6 -9 -17z"/>
<path d="M6539 3683 c-13 -16 -12 -17 4 -4 9 7 17 15 17 17 0 8 -8 3 -21 -13z"/>
<path d="M3850 3669 c0 -5 5 -7 10 -4 6 3 10 8 10 11 0 2 -4 4 -10 4 -5 0 -10
-5 -10 -11z"/>
<path d="M3575 3659 c-2 -3 -7 -57 -11 -120 -8 -135 7 -309 42 -494 42 -217
41 -197 8 -193 -26 3 -30 -1 -38 -37 -5 -22 -11 -41 -12 -43 -2 -4 -90 45
-124 68 -14 10 -29 19 -35 21 -5 2 -9 8 -7 12 1 5 -2 6 -8 2 -5 -3 -33 6 -61
22 -44 25 -50 31 -46 56 2 15 1 27 -3 27 -4 0 -13 38 -20 85 -16 101 -30 96
-19 -7 5 -39 6 -75 3 -80 -3 -4 0 -8 5 -8 6 0 11 -7 11 -15 0 -21 -3 -20 -81
21 -39 21 -66 41 -62 47 3 6 1 7 -6 3 -6 -4 -33 5 -59 20 -26 15 -76 42 -112
60 -36 19 -72 38 -80 43 -8 5 -28 16 -45 24 -65 31 -131 70 -151 88 -11 11
-23 16 -27 12 -4 -3 -15 1 -25 10 -10 10 -22 14 -25 10 -4 -3 -7 -1 -7 5 0 7
-15 18 -32 25 -18 8 -39 21 -47 30 -7 10 -19 17 -26 17 -7 0 -18 7 -25 15 -7
8 -21 15 -31 15 -10 0 -23 9 -29 20 -6 11 -19 20 -29 20 -10 0 -24 7 -31 15
-6 8 -22 17 -33 21 -12 4 -34 15 -48 25 -15 10 -35 20 -45 22 -11 1 -26 7 -34
12 -25 15 -64 6 -149 -35 -76 -37 -106 -59 -61 -45 19 6 100 -30 108 -47 2 -5
9 -8 15 -8 7 0 39 -16 72 -36 33 -21 85 -50 115 -67 30 -16 62 -35 70 -41 8
-7 40 -25 70 -41 85 -44 124 -66 138 -77 12 -10 42 -27 110 -63 17 -10 32 -21
32 -26 0 -5 8 -9 19 -9 10 0 30 -9 44 -20 14 -11 32 -20 40 -20 7 0 22 -9 32
-20 10 -11 26 -20 35 -20 10 0 23 -7 30 -16 8 -8 28 -21 47 -29 18 -8 33 -19
33 -24 0 -6 11 -11 24 -11 13 0 29 -7 36 -15 6 -8 41 -28 76 -45 35 -18 67
-36 70 -41 3 -6 16 -14 27 -20 12 -5 29 -13 37 -17 8 -5 25 -14 38 -20 12 -7
32 -17 45 -24 12 -6 29 -15 37 -19 8 -5 38 -21 65 -35 82 -43 104 -63 131
-117 33 -64 50 -122 68 -228 54 -317 51 -640 -10 -1136 -5 -39 -10 -46 -85
-98 l-79 -56 25 -49 c31 -61 45 -63 122 -12 270 179 869 530 1001 588 42 18
78 37 80 42 4 14 -56 61 -147 116 -79 48 -82 51 -76 80 14 70 12 68 58 45 23
-12 53 -29 67 -39 14 -9 41 -23 60 -30 19 -7 73 -37 120 -65 159 -98 325 -193
425 -244 121 -63 192 -117 225 -170 14 -23 30 -41 37 -41 6 0 45 -27 87 -60
87 -69 95 -88 103 -225 5 -83 3 -96 -26 -171 -17 -45 -54 -119 -82 -165 -150
-247 -141 -227 -150 -319 -4 -47 -15 -128 -23 -180 -9 -52 -16 -98 -16 -102 0
-5 646 -8 1435 -8 l1435 0 -2 236 -3 235 -48 26 -47 26 -23 -21 c-13 -12 -30
-22 -39 -22 -8 0 -23 -9 -33 -20 -10 -11 -23 -20 -28 -20 -6 0 -33 -11 -61
-24 -28 -13 -79 -29 -112 -35 -115 -21 -308 -16 -355 9 -10 6 -29 10 -42 10
-13 0 -36 9 -50 21 -15 11 -37 22 -49 24 -13 3 -28 12 -34 20 -6 8 -18 15 -26
15 -8 0 -23 9 -33 20 -10 11 -26 20 -36 20 -10 0 -21 5 -25 11 -3 6 -22 17
-40 25 -19 8 -34 18 -34 23 0 5 -14 12 -30 16 -17 4 -35 15 -40 26 -6 10 -19
19 -29 19 -10 0 -26 9 -36 20 -10 11 -25 20 -34 20 -9 0 -24 9 -34 20 -9 11
-26 20 -37 20 -10 0 -24 9 -30 20 -6 11 -21 20 -34 20 -13 0 -26 6 -29 14 -3
8 -22 19 -41 26 -20 6 -36 16 -36 21 0 5 -15 16 -32 24 -64 31 -93 48 -101 62
-4 7 -16 13 -26 13 -10 0 -26 9 -36 20 -10 11 -26 20 -35 20 -9 0 -25 9 -35
20 -10 11 -25 20 -33 20 -9 0 -24 7 -34 17 -18 16 -37 28 -93 58 -16 9 -48 27
-70 40 -22 13 -55 31 -72 39 -18 8 -33 19 -33 25 0 5 -16 15 -35 21 -19 6 -35
16 -35 21 0 5 -11 11 -24 15 -14 3 -32 14 -42 25 -9 10 -25 19 -34 19 -10 0
-23 7 -30 16 -8 8 -27 22 -44 30 -17 8 -49 26 -71 39 -22 14 -55 32 -72 40
-18 8 -33 20 -33 25 0 5 -11 12 -24 16 -14 3 -32 14 -42 25 -9 10 -25 19 -35
19 -10 0 -21 5 -25 11 -3 6 -21 18 -38 26 -17 8 -49 25 -71 38 -22 14 -51 30
-65 37 -14 7 -29 18 -33 25 -4 7 -14 13 -22 13 -7 0 -27 11 -43 25 -17 14 -37
25 -45 25 -9 0 -19 5 -23 11 -3 6 -22 17 -40 25 -19 8 -34 18 -34 23 0 6 -10
13 -22 17 -13 3 -36 16 -51 27 -22 15 -26 22 -16 28 8 4 10 11 6 15 -4 4 -13
-1 -20 -11 -10 -13 -22 -16 -43 -12 -77 15 -124 31 -184 65 -36 20 -81 44
-100 54 -19 10 -66 47 -103 83 -38 36 -70 65 -72 65 -2 0 -6 -24 -10 -52 -8
-67 -24 -119 -41 -139 -8 -8 -17 -30 -20 -47 -4 -18 -11 -35 -15 -38 -5 -3 -9
-18 -9 -34 0 -61 -13 -73 -141 -137 -197 -98 -301 -142 -385 -163 -43 -10 -80
-17 -82 -15 -2 2 1 91 8 197 18 270 -4 664 -44 808 -23 80 -20 99 24 185 l39
79 -38 36 -37 36 22 17 c12 9 73 47 136 83 135 79 309 188 358 224 81 60 172
113 215 124 l47 11 -44 29 -43 28 -53 -18 c-29 -10 -55 -21 -58 -26 -11 -18
-319 -213 -522 -329 l-83 -48 -10 27 c-33 86 -68 310 -75 482 -7 147 9 243 42
248 10 2 24 8 29 14 6 6 -18 8 -68 6 -44 -2 -80 -6 -82 -9z m1226 -1846 c13
-16 12 -17 -3 -4 -17 13 -22 21 -14 21 2 0 10 -8 17 -17z m-466 -241 c-90 -57
-89 -56 -81 -44 4 6 29 24 56 39 27 15 47 30 45 33 -2 3 6 7 18 7 13 1 0 -12
-38 -35z m-95 -56 c0 -3 -4 -8 -10 -11 -5 -3 -10 -1 -10 4 0 6 5 11 10 11 6 0
10 -2 10 -4z m-60 -41 c0 -2 -10 -9 -22 -15 -22 -11 -22 -10 -4 4 21 17 26 19
26 11z m-107 -40 c-3 -9 -8 -14 -10 -11 -3 3 -2 9 2 15 9 16 15 13 8 -4z m-30
-18 c3 -8 -1 -14 -9 -14 -8 0 -14 6 -14 14 0 7 4 13 9 13 5 0 11 -6 14 -13z
m-133 -37 c0 -5 19 -10 43 -12 l42 -3 -45 -29 c-25 -16 -47 -32 -50 -35 -11
-14 -111 -73 -116 -69 -3 3 -1 27 4 54 6 27 10 42 11 33 1 -13 9 -15 46 -9 25
4 45 5 45 3 0 -2 9 1 21 7 20 11 20 12 -10 37 -17 14 -28 29 -25 34 6 10 34 0
34 -11z m-103 -32 c-3 -7 -5 -2 -5 12 0 14 2 19 5 13 2 -7 2 -19 0 -25z m57
24 c3 -5 -1 -9 -9 -9 -8 0 -12 4 -9 9 3 4 7 8 9 8 2 0 6 -4 9 -8z"/>
<path d="M7560 3651 c-19 -10 -83 -49 -142 -87 -59 -38 -145 -91 -192 -118
-48 -27 -84 -51 -81 -54 2 -3 10 0 17 6 7 5 36 22 63 37 111 60 349 207 374
231 9 9 -6 3 -39 -15z"/>
<path d="M10214 3655 c-10 -8 -14 -15 -8 -15 6 0 17 7 24 15 16 19 9 19 -16 0z"/>
<path d="M8045 3611 c-53 -24 -178 -101 -187 -115 -4 -6 -8 -120 -8 -253 0
-200 2 -243 14 -243 7 0 19 7 26 15 7 8 18 15 26 15 22 0 27 19 25 105 l-2 83
48 29 c92 58 132 111 158 208 18 69 12 120 -18 153 -25 27 -31 27 -82 3z m1
-106 c34 -51 -2 -147 -67 -180 l-29 -16 -1 48 c-1 27 -2 62 -2 79 0 22 9 39
33 62 40 39 45 39 66 7z"/>
<path d="M10144 3615 c-10 -8 -14 -14 -9 -14 6 0 19 6 29 14 11 8 15 15 10 15
-6 0 -19 -7 -30 -15z"/>
<path d="M10074 3575 c-10 -8 -14 -14 -9 -14 6 0 19 6 29 14 11 8 15 15 10 15
-6 0 -19 -7 -30 -15z"/>
<path d="M4410 3546 c0 -3 14 -12 30 -21 17 -9 30 -13 30 -11 0 3 -13 12 -30
21 -16 9 -30 13 -30 11z"/>
<path d="M10009 3533 c-13 -15 -12 -15 9 -4 23 12 28 21 13 21 -5 0 -15 -7
-22 -17z"/>
<path d="M4485 3503 c6 -6 134 -84 285 -173 151 -90 353 -210 448 -267 170
-101 272 -157 272 -149 0 2 -46 30 -102 62 -57 32 -213 124 -348 204 -586 350
-579 346 -555 323z"/>
<path d="M9936 3495 c-11 -8 -15 -15 -10 -15 6 0 19 7 30 15 10 8 15 14 9 14
-5 0 -19 -6 -29 -14z"/>
<path d="M60 3466 c0 -2 7 -6 15 -10 8 -3 15 -1 15 4 0 6 -7 10 -15 10 -8 0
-15 -2 -15 -4z"/>
<path d="M9875 3460 c-3 -5 -2 -10 4 -10 5 0 13 5 16 10 3 6 2 10 -4 10 -5 0
-13 -4 -16 -10z"/>
<path d="M135 3420 c3 -5 11 -10 16 -10 6 0 7 5 4 10 -3 6 -11 10 -16 10 -6 0
-7 -4 -4 -10z"/>
<path d="M795 3420 c-3 -6 1 -7 9 -4 18 7 21 14 7 14 -6 0 -13 -4 -16 -10z"/>
<path d="M9810 3420 c-8 -5 -10 -10 -5 -10 6 0 17 5 25 10 8 5 11 10 5 10 -5
0 -17 -5 -25 -10z"/>
<path d="M7589 3337 l-104 -63 -3 -258 c-1 -142 1 -256 5 -254 5 2 25 14 46
27 l37 23 0 103 c0 96 2 105 22 119 12 9 28 16 34 16 7 0 24 -34 39 -75 16
-42 31 -78 36 -80 12 -8 78 35 84 56 4 10 -1 29 -9 41 -9 12 -16 28 -16 35 0
8 -12 32 -26 55 -21 33 -24 45 -15 57 60 85 85 191 55 236 -27 42 -67 34 -185
-38z m91 -52 c8 -10 11 -31 7 -58 -4 -34 -14 -50 -52 -84 -26 -24 -51 -40 -56
-37 -5 3 -9 34 -9 69 0 60 2 65 35 94 40 35 57 38 75 16z"/>
<path d="M205 3380 c3 -5 11 -10 16 -10 6 0 7 5 4 10 -3 6 -11 10 -16 10 -6 0
-7 -4 -4 -10z"/>
<path d="M724 3374 c-18 -14 -18 -15 4 -4 12 6 22 13 22 15 0 8 -5 6 -26 -11z"/>
<path d="M9739 3373 c-13 -17 -13 -17 6 -3 11 8 22 16 24 17 2 2 0 3 -6 3 -6
0 -17 -8 -24 -17z"/>
<path d="M666 3345 c-11 -8 -15 -15 -9 -15 6 0 16 7 23 15 16 19 11 19 -14 0z"/>
<path d="M260 3345 c0 -2 10 -10 23 -16 20 -11 21 -11 8 4 -13 16 -31 23 -31
12z"/>
<path d="M9670 3340 c-13 -8 -13 -10 2 -10 9 0 20 5 23 10 8 13 -5 13 -25 0z"/>
<path d="M9614 3305 c-10 -8 -14 -15 -8 -15 6 0 17 7 24 15 16 19 9 19 -16 0z"/>
<path d="M595 3300 c-3 -5 -2 -10 4 -10 5 0 13 5 16 10 3 6 2 10 -4 10 -5 0
-13 -4 -16 -10z"/>
<path d="M6974 3294 c-18 -14 -18 -15 4 -4 12 6 22 13 22 15 0 8 -5 6 -26 -11z"/>
<path d="M9544 3265 c-10 -8 -14 -15 -8 -15 6 0 17 7 24 15 16 19 9 19 -16 0z"/>
<path d="M524 3254 c-18 -14 -18 -15 4 -4 12 6 22 13 22 15 0 8 -5 6 -26 -11z"/>
<path d="M8830 3233 c-13 -15 -12 -16 4 -10 10 4 20 7 22 7 2 0 4 5 4 10 0 15
-13 12 -30 -7z"/>
<path d="M465 3229 c-9 -14 -2 -20 14 -10 8 6 9 11 3 15 -6 3 -14 1 -17 -5z"/>
<path d="M9474 3224 c-18 -14 -18 -15 4 -4 12 6 22 13 22 15 0 8 -5 6 -26 -11z"/>
<path d="M7290 3150 c-145 -92 -132 -62 -138 -329 -3 -126 -2 -237 2 -246 5
-15 9 -14 35 4 16 12 31 21 34 21 3 0 44 23 91 51 l86 52 0 43 c0 24 -2 44 -5
44 -2 0 -36 -20 -74 -45 -38 -25 -72 -45 -75 -45 -3 0 -6 34 -6 75 0 60 3 75
15 75 18 0 87 42 115 70 20 20 27 64 12 74 -5 3 -36 -13 -70 -35 -35 -21 -65
-39 -67 -39 -3 0 -5 27 -5 59 l0 59 79 47 c77 45 91 63 91 116 0 19 -28 7
-120 -51z"/>
<path d="M390 3180 c-9 -6 -10 -10 -3 -10 6 0 15 5 18 10 8 12 4 12 -15 0z"/>
<path d="M9380 3179 c0 -5 5 -7 10 -4 6 3 10 8 10 11 0 2 -4 4 -10 4 -5 0 -10
-5 -10 -11z"/>
<path d="M550 3176 c0 -2 7 -9 15 -16 9 -7 15 -8 15 -2 0 5 -7 12 -15 16 -8 3
-15 4 -15 2z"/>
<path d="M325 3140 c-3 -5 -2 -10 4 -10 5 0 13 5 16 10 3 6 2 10 -4 10 -5 0
-13 -4 -16 -10z"/>
<path d="M610 3136 c0 -2 7 -7 16 -10 8 -3 12 -2 9 4 -6 10 -25 14 -25 6z"/>
<path d="M4650 3136 c0 -2 7 -9 15 -16 13 -11 14 -10 9 4 -5 14 -24 23 -24 12z"/>
<path d="M264 3105 c-10 -8 -14 -15 -8 -15 6 0 17 7 24 15 16 19 9 19 -16 0z"/>
<path d="M685 3090 c3 -5 11 -10 16 -10 6 0 7 5 4 10 -3 6 -11 10 -16 10 -6 0
-7 -4 -4 -10z"/>
<path d="M199 3063 c-13 -15 -12 -15 9 -4 23 12 28 21 13 21 -5 0 -15 -7 -22
-17z"/>
<path d="M6106 3054 c-16 -9 -24 -19 -19 -23 6 -3 13 -15 17 -26 3 -11 29 -32
58 -47 51 -27 52 -28 82 -10 17 10 31 24 31 32 0 16 -102 89 -125 89 -8 0 -28
-7 -44 -15z"/>
<path d="M135 3030 c-3 -5 -2 -10 4 -10 5 0 13 5 16 10 3 6 2 10 -4 10 -5 0
-13 -4 -16 -10z"/>
<path d="M74 2995 c-10 -8 -14 -14 -9 -15 15 0 40 18 34 24 -3 3 -14 -1 -25
-9z"/>
<path d="M9710 2996 c0 -2 8 -10 18 -17 15 -13 16 -12 3 4 -13 16 -21 21 -21
13z"/>
<path d="M8 2953 c7 -3 16 -2 19 1 4 3 -2 6 -13 5 -11 0 -14 -3 -6 -6z"/>
<path d="M6034 2890 c-31 -39 -54 -73 -50 -77 3 -3 14 1 24 10 10 10 26 17 34
17 9 0 20 6 25 13 13 16 13 47 0 47 -6 0 -7 3 -4 7 4 3 15 -1 26 -11 17 -16
20 -15 42 4 l24 20 -25 20 c-14 11 -28 20 -32 20 -4 0 -33 -32 -64 -70z"/>
<path d="M8113 2753 c-18 -9 -33 -20 -33 -23 0 -12 41 -4 50 10 4 7 8 -40 9
-105 1 -78 -2 -115 -9 -110 -5 3 -10 0 -10 -8 0 -8 7 -17 15 -21 13 -5 15 14
15 134 0 77 -1 140 -2 139 -2 0 -18 -8 -35 -16z"/>
<path d="M7997 2678 l-67 -41 -2 -361 c-1 -198 -2 -380 -2 -403 -1 -39 2 -44
36 -63 24 -14 51 -20 74 -18 l37 3 -2 460 c-1 252 -3 460 -4 462 -2 1 -33 -16
-70 -39z"/>
<path d="M10187 2699 c7 -7 15 -10 18 -7 3 3 -2 9 -12 12 -14 6 -15 5 -6 -5z"/>
<path d="M5184 2668 l-19 -23 23 19 c12 11 22 21 22 23 0 8 -8 2 -26 -19z"/>
<path d="M5828 2654 c-38 -20 -36 -28 2 -9 17 9 30 18 30 20 0 7 -1 6 -32 -11z"/>
<path d="M7815 2620 c-3 -6 1 -7 9 -4 18 7 21 14 7 14 -6 0 -13 -4 -16 -10z"/>
<path d="M6327 2606 c-117 -42 -238 -167 -267 -275 -10 -37 -9 -50 6 -82 21
-49 55 -71 119 -80 41 -5 65 -1 135 23 109 38 161 69 232 136 64 60 95 129 83
182 -18 83 -192 137 -308 96z m270 -72 c-3 -3 -12 -4 -19 -1 -8 3 -5 6 6 6 11
1 17 -2 13 -5z m-37 -9 c0 -5 -96 -55 -106 -55 -4 0 10 13 32 30 34 26 74 39
74 25z m-300 -238 c0 -2 -10 -12 -22 -23 l-23 -19 19 23 c18 21 26 27 26 19z"/>
<path d="M5031 2524 c2 -5 15 -37 29 -72 24 -60 40 -79 40 -47 0 20 -46 112
-61 121 -6 4 -10 3 -8 -2z"/>
<path d="M4230 2487 c0 -29 18 -64 57 -108 21 -25 45 -64 52 -87 13 -39 31
-57 31 -31 0 17 34 -31 49 -68 9 -22 10 -37 2 -51 -8 -15 -6 -24 9 -42 l20
-23 0 24 c0 17 3 20 9 11 7 -11 9 -11 14 1 12 31 -81 189 -149 252 -24 22 -55
62 -69 89 -14 27 -25 42 -25 33z m118 -172 c-3 -3 -9 2 -12 12 -6 14 -5 15 5
6 7 -7 10 -15 7 -18z"/>
<path d="M1770 2429 c-47 -33 -86 -63 -87 -67 -5 -15 54 -87 72 -90 11 -1 36
11 56 27 30 25 38 40 43 78 4 27 10 63 13 81 3 17 1 32 -3 31 -5 -1 -47 -28
-94 -60z"/>
<path d="M8136 2403 c-3 -38 -2 -131 3 -208 l8 -140 1 208 c1 114 0 207 -2
207 -2 0 -7 -30 -10 -67z"/>
<path d="M4371 2239 c-1 -8 6 -24 15 -35 15 -19 15 -19 6 1 -5 11 -12 27 -15
35 -5 13 -6 13 -6 -1z"/>
<path d="M5389 2183 c-13 -16 -12 -17 4 -4 16 13 21 21 13 21 -2 0 -10 -8 -17
-17z"/>
<path d="M4395 2171 c-3 -5 -1 -12 5 -16 5 -3 10 1 10 9 0 18 -6 21 -15 7z"/>
<path d="M1072 1850 l3 -292 55 7 c30 4 65 9 77 10 13 1 31 8 40 17 10 8 45
30 78 49 134 75 180 162 142 272 -8 20 -26 50 -40 65 -15 16 -27 33 -27 39 0
11 -22 23 -43 23 -6 0 -1 -7 11 -16 12 -8 22 -20 22 -25 0 -21 -49 27 -52 51
-3 22 -14 29 -83 52 -44 15 -104 30 -133 34 l-52 7 2 -293z m128 246 c60 -14
80 -28 76 -52 -3 -17 -1 -21 10 -17 8 3 28 0 44 -7 23 -10 29 -19 32 -48 2
-21 9 -38 16 -38 32 -4 36 -6 17 -14 -11 -5 -34 -9 -52 -9 -17 -1 -34 -7 -36
-13 -3 -8 -6 -6 -6 5 -1 12 -9 17 -31 17 -28 0 -30 -2 -30 -40 0 -33 3 -40 20
-40 11 0 20 -4 20 -10 0 -5 9 -10 19 -10 22 0 34 25 26 51 -5 15 -1 19 20 19
22 0 24 -3 15 -19 -5 -11 -10 -22 -10 -25 0 -12 88 -6 92 6 3 7 7 6 11 -5 3
-9 2 -17 -3 -17 -6 0 -10 -7 -10 -16 0 -13 -7 -15 -30 -11 -39 8 -60 0 -60
-24 0 -16 -3 -17 -25 -7 -19 8 -31 8 -50 0 -14 -7 -37 -12 -50 -12 -24 0 -25
2 -25 80 0 73 -2 80 -20 80 -17 0 -20 7 -20 40 0 36 -2 40 -25 40 -19 0 -25 5
-25 21 0 11 5 17 10 14 6 -4 9 -3 8 2 -1 4 2 19 6 32 6 16 4 26 -5 33 -14 10
16 7 71 -6z m-86 -31 c3 -8 1 -15 -4 -15 -6 0 -10 7 -10 15 0 8 2 15 4 15 2 0
6 -7 10 -15z m-17 -132 c-2 -21 -4 -4 -4 37 0 41 2 58 4 38 2 -21 2 -55 0 -75z
m306 31 c-12 -8 -21 -9 -28 -3 -12 12 12 29 32 22 11 -4 10 -8 -4 -19z m30
-18 c17 -13 17 -14 0 -20 -10 -4 -14 -4 -10 0 4 4 -1 13 -11 20 -9 7 -12 13
-7 13 6 0 18 -6 28 -13z m19 -51 c3 -13 1 -22 -3 -19 -9 5 -13 44 -5 44 2 0 6
-11 8 -25z m-285 -32 c0 -9 -4 -10 -14 -2 -7 6 -13 8 -13 5 0 -4 -4 -4 -10 -1
-6 4 -5 11 2 19 14 14 35 2 35 -21z m-80 -110 c-3 -10 -5 -2 -5 17 0 19 2 27
5 18 2 -10 2 -26 0 -35z m344 -10 c-20 -28 -26 -28 -27 0 -1 17 4 22 21 22 21
0 21 -1 6 -22z m-74 -25 c-3 -8 -6 -5 -6 6 -1 11 2 17 5 13 3 -3 4 -12 1 -19z
m-260 -20 c-3 -8 -6 -5 -6 6 -1 11 2 17 5 13 3 -3 4 -12 1 -19z m290 -1 c-22
-20 -59 -39 -65 -33 -3 3 1 6 9 6 11 0 11 2 -1 10 -13 8 -12 10 3 10 9 0 20
-1 23 -2 3 -2 10 5 15 15 6 9 14 15 20 12 5 -4 4 -11 -4 -18z m-110 -22 c0 -8
-4 -12 -9 -9 -5 3 -6 10 -3 15 9 13 12 11 12 -6z"/>
<path d="M1150 2080 c0 -5 7 -7 15 -4 8 4 15 8 15 10 0 2 -7 4 -15 4 -8 0 -15
-4 -15 -10z"/>
<path d="M1240 2060 c0 -5 7 -10 16 -10 8 0 12 5 9 10 -3 6 -10 10 -16 10 -5
0 -9 -4 -9 -10z"/>
<path d="M1200 2015 c0 -8 9 -15 20 -15 11 0 20 7 20 15 0 8 -9 15 -20 15 -11
0 -20 -7 -20 -15z"/>
<path d="M5240 2029 c-58 -62 -116 -122 -129 -135 -13 -13 -19 -24 -14 -24 6
0 27 19 48 43 20 23 77 84 127 135 50 50 87 92 82 92 -5 0 -56 -50 -114 -111z"/>
<path d="M4461 2023 c0 -5 4 -17 9 -28 8 -18 9 -17 9 8 1 15 -3 27 -9 27 -5 0
-10 -3 -9 -7z"/>
<path d="M8136 1999 c-8 -43 -8 -99 2 -99 4 0 7 29 8 65 0 36 0 65 -1 65 -2 0
-5 -14 -9 -31z"/>
<path d="M10200 1752 c-14 -9 -26 -20 -28 -24 -2 -5 -10 -8 -19 -8 -8 0 -26
-9 -40 -20 -14 -11 -31 -20 -38 -20 -7 0 -18 -7 -25 -16 -8 -8 -27 -22 -44
-29 -32 -15 -52 -27 -98 -57 -15 -10 -33 -18 -40 -18 -8 0 -21 -9 -31 -20 -9
-11 -23 -20 -30 -20 -8 0 -22 -9 -32 -20 -10 -11 -26 -20 -36 -20 -10 0 -25
-8 -34 -17 -16 -16 -43 -32 -110 -68 -16 -9 -50 -29 -75 -45 -25 -16 -59 -36
-76 -44 -17 -8 -35 -19 -38 -25 -4 -6 -16 -11 -27 -11 -10 0 -19 -5 -19 -11 0
-5 -15 -17 -32 -25 -18 -7 -51 -25 -73 -39 -22 -14 -58 -34 -80 -45 -22 -11
-60 -34 -85 -50 -25 -16 -55 -34 -67 -40 l-23 -10 0 -525 0 -525 620 0 620 0
0 885 c0 487 -3 885 -7 884 -5 0 -19 -8 -33 -17z"/>
<path d="M1449 1683 c-13 -16 -12 -17 4 -4 9 7 17 15 17 17 0 8 -8 3 -21 -13z"/>
<path d="M1374 1635 c-10 -8 -14 -15 -8 -15 6 0 17 7 24 15 16 19 9 19 -16 0z"/>
<path d="M1310 1610 c-19 -11 -30 -19 -23 -20 18 0 63 22 63 32 0 10 1 11 -40
-12z"/>
<path d="M5050 1461 c14 -11 30 -21 35 -21 11 0 -7 14 -40 31 -13 7 -12 3 5
-10z"/>
<path d="M4500 1376 c-208 -111 -566 -313 -612 -345 -42 -29 -45 -38 -22 -56
14 -9 33 -7 96 11 211 62 356 128 493 226 50 36 104 72 120 81 17 8 36 26 43
39 22 45 52 128 44 128 -4 -1 -77 -38 -162 -84z"/>
<path d="M5100 1426 c0 -2 7 -7 16 -10 8 -3 12 -2 9 4 -6 10 -25 14 -25 6z"/>
<path d="M4970 1406 c0 -2 7 -6 15 -10 8 -3 15 -1 15 4 0 6 -7 10 -15 10 -8 0
-15 -2 -15 -4z"/>
<path d="M1748 1325 c-59 -34 -126 -76 -148 -94 l-40 -32 0 -599 0 -600 84 0
85 0 3 529 c2 291 7 533 11 537 4 5 16 3 25 -4 9 -7 31 -19 47 -28 17 -8 39
-21 50 -27 89 -54 147 -87 150 -87 2 0 43 -24 92 -54 48 -29 107 -63 131 -75
l42 -21 0 -385 0 -385 95 0 95 0 0 133 c0 72 3 223 7 334 l6 203 46 -26 c25
-15 71 -40 101 -57 30 -17 66 -38 79 -49 13 -10 27 -18 31 -18 4 0 97 -52 206
-116 110 -64 238 -139 287 -166 48 -27 87 -54 87 -59 0 -6 4 -8 9 -5 5 3 25
-5 45 -19 20 -14 51 -32 68 -41 l32 -17 -34 -17 c-32 -16 -48 -38 -49 -67 -1
-10 33 -13 136 -13 l136 0 99 55 c54 30 100 55 102 55 3 0 0 -15 -5 -32 -5
-18 -9 -43 -9 -55 l0 -23 201 0 200 0 -3 42 -3 43 -65 -3 c-65 -3 -140 17
-140 38 0 6 -6 10 -13 10 -8 0 -19 11 -26 24 -14 24 -8 46 11 46 5 0 22 8 36
19 15 10 47 30 72 43 25 14 90 51 145 83 402 230 549 306 558 289 4 -8 12 -12
18 -9 5 4 9 1 9 -5 0 -6 14 -28 30 -49 17 -21 30 -44 28 -52 -2 -8 3 -13 10
-11 6 1 12 -2 12 -8 0 -5 -6 -10 -12 -10 -10 0 -10 -2 -2 -8 7 -4 15 -24 18
-45 3 -21 3 -36 -1 -34 -5 3 -9 -17 -10 -44 -1 -26 2 -51 7 -54 6 -4 11 -25
11 -48 1 -25 4 -32 6 -19 4 18 10 23 24 19 18 -5 19 -2 13 26 -3 18 -10 34
-15 35 -5 2 -7 7 -5 11 3 4 -3 52 -12 107 -14 77 -24 108 -46 137 -16 20 -32
34 -37 31 -5 -3 -6 1 -3 9 3 9 -4 21 -16 30 l-22 15 24 15 c66 40 302 167 312
167 3 0 7 -118 8 -262 l3 -263 50 80 49 80 4 268 c4 292 1 317 -48 342 -15 8
-38 11 -51 8 -13 -3 -128 -59 -255 -124 -127 -65 -234 -115 -238 -112 -3 4 -6
1 -6 -6 0 -11 -157 -91 -179 -91 -5 0 -14 -6 -18 -13 -4 -7 -27 -19 -51 -25
-26 -8 -40 -17 -36 -24 4 -6 3 -8 -4 -4 -10 6 -64 -17 -287 -124 -67 -32 -347
-168 -406 -198 -3 -1 -7 113 -8 255 -1 142 -4 259 -5 261 -2 1 -29 -13 -61
-33 -42 -25 -65 -33 -83 -28 l-24 6 6 -124 c14 -303 19 -549 10 -549 -5 0 -21
8 -34 17 -14 10 -50 30 -80 46 -30 15 -98 54 -150 87 -117 73 -270 164 -355
210 -34 19 -71 42 -81 51 -11 9 -31 23 -46 30 -15 8 -72 41 -128 74 -55 33
-113 67 -128 75 -15 8 -29 18 -32 21 -3 3 -30 18 -60 34 -30 16 -64 37 -75 46
-11 9 -45 29 -75 45 -30 15 -57 31 -60 35 -3 3 -18 14 -35 23 -16 9 -46 26
-65 38 -19 11 -53 31 -75 43 -22 13 -63 38 -92 56 -28 19 -59 39 -67 44 -12 8
-18 38 -26 129 -5 65 -10 120 -12 121 -2 1 -51 -26 -110 -60z m2602 -659 c0
-3 -4 -8 -10 -11 -5 -3 -10 -1 -10 4 0 6 5 11 10 11 6 0 10 -2 10 -4z m-155
-76 c3 -5 -1 -10 -10 -10 -9 0 -13 5 -10 10 3 6 8 10 10 10 2 0 7 -4 10 -10z
m772 -312 c-3 -8 -6 -5 -6 6 -1 11 2 17 5 13 3 -3 4 -12 1 -19z"/>
<path d="M5216 1297 c3 -10 9 -15 12 -12 3 3 0 11 -7 18 -10 9 -11 8 -5 -6z"/>
<path d="M5435 1023 c-5 -10 -9 -65 -11 -123 -2 -58 -8 -129 -13 -159 -14 -69
-14 -72 6 -36 9 17 18 48 20 70 3 22 9 45 15 52 8 10 6 13 -6 13 -19 0 -20 21
-6 125 9 73 8 88 -5 58z"/>
<path d="M8905 989 c-22 -16 -63 -41 -91 -54 -29 -14 -57 -32 -64 -40 -7 -8
-20 -15 -30 -15 -9 0 -25 -9 -35 -20 -10 -11 -23 -20 -30 -20 -7 0 -22 -9 -35
-20 -13 -11 -29 -20 -37 -20 -7 0 -21 -9 -30 -20 -10 -11 -24 -20 -31 -20 -8
0 -25 -9 -39 -20 -14 -11 -31 -20 -38 -20 -6 0 -20 -9 -30 -20 -10 -11 -26
-20 -35 -20 -9 0 -25 -9 -35 -20 -10 -11 -26 -20 -36 -20 -10 0 -22 -6 -26
-13 -4 -8 -16 -17 -27 -20 -11 -5 -16 -13 -12 -23 3 -9 6 -38 6 -64 l0 -49
168 -104 c170 -105 262 -161 310 -186 15 -8 71 -43 125 -78 54 -34 100 -63
102 -63 3 0 5 221 5 490 0 270 -3 490 -7 489 -5 0 -26 -14 -48 -30z"/>
<path d="M5505 948 c-4 -24 -18 -71 -31 -105 -13 -35 -21 -63 -18 -63 12 0 55
113 61 159 7 62 -2 68 -12 9z"/>
<path d="M8178 562 c-16 -10 -28 -19 -28 -22 0 -6 54 -40 62 -40 2 0 5 18 6
40 3 44 0 46 -40 22z"/>
<path d="M4992 484 c10 -10 20 -16 22 -13 3 3 -5 11 -17 18 -21 13 -21 12 -5
-5z"/>
<path d="M4865 457 c-46 -28 -65 -46 -55 -52 5 -3 10 -1 10 4 0 6 16 17 35 25
19 8 35 20 35 25 0 13 0 13 -25 -2z"/>
<path d="M8250 221 l1 -221 355 0 c195 0 354 2 354 4 0 2 -19 15 -42 28 -24
14 -119 71 -213 127 -93 57 -208 126 -255 154 -47 28 -111 68 -143 89 l-58 39
1 -220z"/>
<path d="M4750 388 c-19 -12 -62 -35 -95 -49 l-60 -28 -6 -98 c-4 -54 -12
-122 -18 -152 -6 -29 -11 -55 -11 -57 0 -2 74 -4 164 -4 l164 0 5 32 c2 18 1
35 -4 36 -5 2 -9 32 -9 67 0 43 -4 64 -13 68 -26 10 -40 -9 -32 -42 6 -27 4
-31 -14 -31 -17 0 -21 6 -21 35 l0 35 -79 0 c-54 0 -81 -4 -84 -12 -6 -17 -13
-9 -21 25 -5 20 -3 27 9 27 8 0 15 4 15 9 0 5 3 17 7 26 5 14 2 16 -17 10 -16
-5 -21 -4 -18 6 3 8 10 15 16 15 7 1 20 2 30 3 13 1 14 3 3 10 -11 7 -9 10 9
16 13 4 25 3 30 -4 4 -7 11 -2 18 15 7 14 18 24 25 21 7 -2 20 6 30 19 22 29
21 29 -23 2z m-153 -330 c-2 -13 -4 -5 -4 17 -1 22 1 32 4 23 2 -10 2 -28 0
-40z"/>
<path d="M5284 208 c-54 -81 -114 -183 -114 -195 0 -9 20 -13 65 -13 l65 0 1
38 c0 20 4 76 7 125 4 48 7 87 6 87 -1 0 -14 -19 -30 -42z"/>
<path d="M4927 187 c-3 -8 -1 -20 4 -28 6 -10 9 -7 9 14 0 29 -5 35 -13 14z"/>
<path d="M4908 73 c-5 -65 -3 -82 6 -72 11 11 18 139 9 139 -6 0 -13 -30 -15
-67z"/>
</g>
</svg>
